<?xml version="1.0" encoding="UTF-8" standalone="no"?>
<svg width="21px" height="12px" viewBox="0 0 21 12" version="1.1" xmlns="http://www.w3.org/2000/svg" xmlns:xlink="http://www.w3.org/1999/xlink">
    <!-- Generator: Sketch 39.1 (31720) - http://www.bohemiancoding.com/sketch -->
    <title>Group 16</title>
    <desc>Created with Sketch.</desc>
    <defs>
        <polygon id="path-1" points="0 0.0184615385 0 11.9487692 20.603043 11.9487692 20.603043 0.0184615385 7.1544261e-22 0.0184615385"></polygon>
    </defs>
    <g id="02-Stock-News" stroke="none" stroke-width="1" fill="none" fill-rule="evenodd">
        <g id="Group-16">
            <g id="Group-6">
                <g id="Group-5">
                    <g id="Group-8">
                        <g id="Group-3">
                            <mask id="mask-2" fill="white">
                                <use xlink:href="#path-1"></use>
                            </mask>
                            <g id="Clip-2"></g>
                            <path d="M10.3015611,0.0184615385 C6.36535445,0.0184615385 2.79683258,2.10661538 0.161485671,5.50764103 C-0.0538461538,5.78666667 -0.0538461538,6.17230769 0.161485671,6.45133333 C2.79683258,9.85641026 6.36535445,11.9487692 10.3015611,11.9487692 C14.2375038,11.9487692 17.8062368,9.86061538 20.4414253,6.45958974 C20.6569155,6.18051282 20.6569155,5.79492308 20.4414253,5.51584615 C17.8062368,2.11082051 14.2375038,0.0184615385 10.3015611,0.0184615385 L10.3015611,0.0184615385 Z M10.5844646,10.1845128 C7.97028658,10.3445641 5.81644042,8.25225641 5.9811991,5.71276923 C6.1162368,3.62041026 7.86470588,1.91789744 10.0227225,1.78666667 C12.6369005,1.62661538 14.7907994,3.71897436 14.6260407,6.25846154 C14.4868326,8.35076923 12.7383635,10.0493333 10.5844646,10.1845128 L10.5844646,10.1845128 Z" id="Fill-1" fill="#808184" mask="url(#mask-2)"></path>
                        </g>
                        <path d="M10.4535445,8.244 C9.04715686,8.33015385 7.88576923,7.20194872 7.97445701,5.83594872 C8.04641026,4.70774359 8.98819005,3.79292308 10.1495777,3.72297436 C11.5557014,3.63687179 12.717089,4.76507692 12.628454,6.13123077 C12.5566591,7.2594359 11.6149321,8.17430769 10.4535445,8.244 L10.4535445,8.244 Z" id="Fill-4" fill="#808184"></path>
                    </g>
                </g>
            </g>
        </g>
    </g>
</svg>