<?xml version="1.0" encoding="UTF-8" standalone="no"?>
<svg width="188px" height="32px" viewBox="0 0 188 32" version="1.1" xmlns="http://www.w3.org/2000/svg" xmlns:xlink="http://www.w3.org/1999/xlink">
    <!-- Generator: Sketch 39.1 (31720) - http://www.bohemiancoding.com/sketch -->
    <title>Page 1</title>
    <desc>Created with Sketch.</desc>
    <defs>
        <polygon id="path-1" points="0 0.462227057 0 3.93542924 0.74565873 3.93542924 0.74565873 0.462227057 0 0.462227057"></polygon>
        <polygon id="path-3" points="0.38845873 16.3409855 43.3867444 16.3409855 43.3867444 0.520237556 0.38845873 0.520237556"></polygon>
    </defs>
    <g id="01-Main" stroke="none" stroke-width="1" fill="none" fill-rule="evenodd">
        <g id="Page-1">
            <g id="Group-3" transform="translate(0.000000, 13.815263)">
                <mask id="mask-2" fill="white">
                    <use xlink:href="#path-1"></use>
                </mask>
                <g id="Clip-2"></g>
                <path d="M0.499626984,3.548445 L-0.000373015874,3.548445 L-0.000373015874,4.048445 C-0.000373015874,3.548445 -0.000373015874,3.548445 0.499626984,3.548445" id="Fill-1" fill="#6076A2" mask="url(#mask-2)"></path>
            </g>
            <polygon id="Fill-4" fill="#ED1944" points="60.0439175 12.3471001 53.0715048 12.3471001 52.6835683 12.3471001 52.6835683 12.7340843 52.6835683 24.310187 52.6835683 24.6964285 53.0715048 24.6964285 55.0082032 24.6964285 55.3953937 24.310187 55.3953937 21.6102105 55.3953937 20.4514861 59.2687905 20.4514861 59.656727 20.0652446 59.656727 18.1362656 59.2687905 17.7507669 55.3953937 17.7507669 55.3953937 17.3637826 55.3953937 15.821045 55.3953937 14.6630634 60.0439175 14.6630634 60.4311079 14.6630634 60.4311079 14.2775647 60.4311079 12.7340843 60.4311079 12.3471001"></polygon>
            <path d="M72.8247841,13.8921402 C72.4390857,13.505156 71.6639587,13.1196573 70.8895778,12.7341586 C70.1144508,12.3471743 69.3393238,11.9616756 68.5656889,11.9616756 C67.4026254,11.9616756 66.6274984,12.3471743 65.8523714,12.7341586 C65.0787365,13.1196573 64.6908,13.505156 63.916419,13.8921402 C63.5277365,14.6631377 63.1420381,15.4348778 62.7541016,16.2058752 C62.365419,16.9783582 61.9804667,17.7508411 61.9804667,18.5218385 C61.9804667,19.2935787 62.365419,20.0653189 62.7541016,20.8378018 C63.1420381,21.6102848 63.5277365,22.3805394 63.916419,23.1530224 C64.6908,23.5385211 65.0787365,23.9240198 65.8523714,24.3102613 C66.6274984,24.6965027 67.4026254,24.6965027 68.5656889,24.6965027 C69.3393238,24.6965027 70.1144508,24.6965027 70.8895778,24.3102613 C71.6639587,23.9240198 72.4390857,23.5385211 72.8247841,23.1530224 C73.6014032,22.3805394 73.9871016,21.6102848 74.3750381,20.8378018 C74.7637206,20.0653189 74.7637206,19.2935787 74.7637206,18.5218385 C74.7637206,17.7508411 74.7637206,16.9783582 74.3750381,16.2058752 C73.9871016,15.4348778 73.6014032,14.6631377 72.8247841,13.8921402 M68.5656889,22.3805394 C67.7898159,22.3805394 67.4026254,22.3805394 67.0146889,21.9950407 C66.6274984,21.9950407 66.241054,21.6102848 65.8523714,21.2225578 C65.465927,20.8378018 65.465927,20.4515604 65.0787365,20.0653189 C65.0787365,19.6798202 64.6908,18.9088228 64.6908,18.5218385 C64.6908,18.1363398 65.0787365,17.3638569 65.0787365,16.9783582 C65.465927,16.5936023 65.465927,16.2058752 65.8523714,15.8211193 C66.241054,15.4348778 66.6274984,15.0501219 67.0146889,15.0501219 C67.4026254,14.6631377 67.7898159,14.6631377 68.5656889,14.6631377 C68.9528794,14.6631377 69.3393238,14.6631377 69.7280063,15.0501219 C70.5016413,15.0501219 70.8895778,15.4348778 70.8895778,15.8211193 C71.2767683,16.2058752 71.6639587,16.5936023 71.6639587,16.9783582 C72.0511492,17.3638569 72.0511492,18.1363398 72.0511492,18.5218385 C72.0511492,18.9088228 72.0511492,19.6798202 71.6639587,20.0653189 C71.6639587,20.4515604 71.2767683,20.8378018 70.8895778,21.2225578 C70.8895778,21.6102848 70.5016413,21.9950407 69.7280063,21.9950407 C69.3393238,22.3805394 68.9528794,22.3805394 68.5656889,22.3805394" id="Fill-6" fill="#ED1944"></path>
            <path d="M87.1589635,13.8921402 C86.770281,13.505156 85.996646,13.1196573 85.2222651,12.7341586 C84.445646,12.3471743 83.6720111,11.9616756 82.8983762,11.9616756 C82.1232492,11.9616756 80.9601857,12.3471743 80.1865508,12.7341586 C79.4114238,13.1196573 79.0249794,13.505156 78.2491063,13.8921402 C77.8619159,14.6631377 77.4739794,15.4348778 77.0867889,16.2058752 C76.6995984,16.9783582 76.3116619,17.7508411 76.3116619,18.5218385 C76.3116619,19.2935787 76.6995984,20.0653189 77.0867889,20.8378018 C77.4739794,21.6102848 77.8619159,22.3805394 78.2491063,23.1530224 C79.0249794,23.5385211 79.4114238,23.9240198 80.1865508,24.3102613 C80.9601857,24.6965027 82.1232492,24.6965027 82.8983762,24.6965027 C83.6720111,24.6965027 84.445646,24.6965027 85.2222651,24.3102613 C85.996646,23.9240198 86.770281,23.5385211 87.1589635,23.1530224 C87.9325984,22.3805394 88.321281,21.6102848 88.7077254,20.8378018 C89.0956619,20.0653189 89.0956619,19.2935787 89.0956619,18.5218385 C89.0956619,17.7508411 89.0956619,16.9783582 88.7077254,16.2058752 C88.321281,15.4348778 87.9325984,14.6631377 87.1589635,13.8921402 M82.8983762,22.3805394 C82.1232492,22.3805394 81.7353127,22.3805394 81.3488683,21.9950407 C80.9601857,21.9950407 80.5737413,21.6102848 80.1865508,21.2225578 C79.7986143,20.8378018 79.7986143,20.4515604 79.4114238,20.0653189 C79.4114238,19.6798202 79.0249794,18.9088228 79.0249794,18.5218385 C79.0249794,18.1363398 79.4114238,17.3638569 79.4114238,16.9783582 C79.7986143,16.5936023 79.7986143,16.2058752 80.1865508,15.8211193 C80.5737413,15.4348778 80.9601857,15.0501219 81.3488683,15.0501219 C81.7353127,14.6631377 82.5104397,14.6631377 82.8983762,14.6631377 C83.2840746,14.6631377 83.6720111,14.6631377 84.0606937,15.0501219 C84.8343286,15.0501219 85.2222651,15.4348778 85.2222651,15.8211193 C85.6087095,16.2058752 85.996646,16.5936023 86.3838365,16.9783582 L86.3838365,18.5218385 L86.3838365,20.0653189 C85.996646,20.4515604 85.6087095,20.8378018 85.2222651,21.2225578 C85.2222651,21.6102848 84.8343286,21.9950407 84.0606937,21.9950407 C83.6720111,22.3805394 83.2840746,22.3805394 82.8983762,22.3805394" id="Fill-8" fill="#ED1944"></path>
            <path d="M101.104759,16.2060238 C100.713092,15.4350264 100.333362,14.6632862 99.9409492,13.8922888 C99.1665683,13.5053046 98.3914413,13.1198059 98.0049968,12.7343071 C97.2298698,12.3473229 96.4562349,12.3473229 95.2931714,12.3473229 L91.4197746,12.3473229 L91.0325841,12.3473229 L91.0325841,12.7343071 L91.0325841,24.3104098 L91.0325841,24.6966513 L91.4197746,24.6966513 L95.2931714,24.6966513 C96.4562349,24.6966513 97.2298698,24.6966513 98.0049968,24.3104098 C98.7801238,23.9241683 99.1665683,23.5386696 99.9409492,23.1531709 C100.333362,22.380688 100.713092,21.6096906 101.104759,20.8372076 C101.496425,20.0647247 101.496425,19.2937273 101.496425,18.5219871 C101.496425,17.7509897 101.496425,16.9785067 101.104759,16.2060238 L101.104759,16.2060238 Z M93.357219,14.6632862 L95.2931714,14.6632862 C95.6811079,14.6632862 96.0675524,14.6632862 96.8426794,15.0495277 C97.2298698,15.0495277 97.6178063,15.4350264 98.0049968,15.8205251 C98.0049968,16.2060238 98.3914413,16.593008 98.7801238,16.9785067 L98.7801238,18.5219871 L98.7801238,20.0647247 C98.3914413,20.4517089 98.0049968,20.8372076 98.0049968,21.2227063 C97.6178063,21.6096906 97.2298698,21.9951893 96.8426794,21.9951893 C96.0675524,22.380688 95.6811079,22.380688 95.2931714,22.380688 L93.357219,22.380688 L93.357219,14.6632862 Z" id="Fill-10" fill="#ED1944"></path>
            <path d="M110.792279,15.8208965 C111.17201,15.434655 111.563676,15.0498991 111.956089,15.0498991 C112.335073,14.6629148 112.727486,14.6629148 113.107216,14.6629148 C113.890549,14.6629148 114.270279,14.6629148 115.054359,15.0498991 C115.434089,15.434655 115.825756,15.8208965 116.217422,16.2063952 L116.597152,16.5933794 L116.989565,16.2063952 L118.152629,15.434655 C118.532359,15.0498991 118.532359,15.0498991 118.152629,14.6629148 C117.760962,13.8919174 116.989565,13.5056759 116.217422,12.7346785 C115.434089,12.3469515 114.270279,12.3469515 113.107216,12.3469515 C112.335073,12.3469515 111.563676,12.3469515 110.792279,12.7346785 C110.007454,13.1194345 109.236803,13.5056759 108.857073,13.8919174 C108.072994,14.6629148 107.69401,15.434655 107.301597,16.2063952 C107.301597,16.9788781 106.90993,17.7513611 106.90993,18.5223585 C106.90993,19.2940987 107.301597,20.0650961 107.301597,20.837579 C107.69401,21.610062 108.072994,22.3803166 108.857073,23.1527995 C109.236803,23.539041 110.007454,23.923797 110.792279,24.3107812 C111.563676,24.6962799 112.335073,24.6962799 113.107216,24.6962799 C114.270279,24.6962799 115.434089,24.6962799 116.217422,24.3107812 C116.989565,23.539041 117.760962,23.1527995 118.152629,22.3803166 C118.532359,21.9955607 118.532359,21.9955607 118.152629,21.610062 L116.989565,20.4513375 L116.597152,20.4513375 L116.217422,20.837579 C115.825756,21.2223349 115.434089,21.610062 115.054359,21.9955607 C114.270279,22.3803166 113.890549,22.3803166 113.107216,22.3803166 C112.727486,22.3803166 112.335073,22.3803166 111.956089,21.9955607 C111.563676,21.9955607 111.17201,21.610062 110.792279,21.2223349 C110.400613,20.837579 110.007454,20.4513375 110.007454,20.0650961 C109.62847,19.6795974 109.62847,18.9086 109.62847,18.5223585 C109.62847,18.136117 109.62847,17.3636341 110.007454,16.9788781 C110.007454,16.5933794 110.400613,16.2063952 110.792279,15.8208965" id="Fill-12" fill="#003262"></path>
            <path d="M125.892857,12.3471001 L125.513127,12.3471001 L124.729048,12.3471001 L120.087984,24.310187 L120.087984,24.6964285 L120.466968,24.6964285 L122.414857,24.6964285 L122.794587,24.6964285 L122.794587,23.9239455 L127.828063,23.9239455 L127.828063,24.6964285 L128.21973,24.6964285 L130.154937,24.6964285 L130.546603,24.6964285 L130.546603,24.310187 L125.892857,12.3471001 Z M125.513127,17.7507669 L126.676937,21.6102105 L123.957651,21.6102105 L125.513127,17.7507669 Z" id="Fill-14" fill="#003262"></path>
            <path d="M141.3854,16.5933794 L141.3854,16.2063952 L141.3854,15.8208965 L141.3854,15.434655 C141.00567,15.0498991 141.00567,14.2774161 140.614003,13.8919174 C140.234273,13.5056759 139.842606,13.1194345 139.450194,12.7346785 C138.678797,12.3469515 137.515733,12.3469515 136.74359,12.3469515 L132.873924,12.3469515 L132.481511,12.3469515 L132.089844,12.7346785 L132.089844,24.3107812 L132.481511,24.6962799 L132.873924,24.6962799 L134.416717,24.6962799 L134.80913,24.6962799 L134.80913,24.3107812 L134.80913,21.2223349 L136.74359,21.2223349 L137.9074,21.2223349 C138.678797,20.837579 139.070463,20.837579 139.450194,20.4513375 C139.842606,20.4513375 140.234273,20.0650961 140.614003,19.6795974 C141.00567,18.9086 141.00567,18.5223585 141.3854,18.136117 L141.3854,17.7513611 L141.3854,17.3636341 L141.3854,16.9788781 L141.3854,16.5933794 Z M138.678797,16.5933794 L138.678797,17.7513611 L138.28713,18.136117 C137.9074,18.5223585 137.9074,18.5223585 137.515733,18.9086 L136.74359,18.9086 L134.80913,18.9086 L134.80913,14.6629148 L136.74359,14.6629148 L137.515733,14.6629148 C137.9074,14.6629148 137.9074,15.0498991 138.28713,15.0498991 C138.28713,15.434655 138.678797,15.8208965 138.678797,15.8208965 L138.678797,16.5933794 Z" id="Fill-16" fill="#003262"></path>
            <polygon id="Fill-18" fill="#003262" points="145.267824 12.3471001 143.712348 12.3471001 143.332617 12.3471001 143.332617 12.7340843 143.332617 24.310187 143.332617 24.6964285 143.712348 24.6964285 145.267824 24.6964285 145.647554 24.6964285 145.647554 24.310187 145.647554 12.7340843 145.647554 12.3471001"></polygon>
            <polygon id="Fill-20" fill="#003262" points="155.334851 12.3471001 147.974502 12.3471001 147.594771 12.3471001 147.594771 12.7340843 147.594771 14.2775647 147.594771 14.6630634 147.974502 14.6630634 150.301375 14.6630634 150.301375 24.310187 150.301375 24.6964285 150.693041 24.6964285 152.628248 24.6964285 153.007978 24.310187 153.007978 14.6630634 155.334851 14.6630634 155.726517 14.6630634 155.726517 14.2775647 155.726517 12.7340843 155.726517 12.3471001"></polygon>
            <path d="M163.087314,12.3471001 L162.695648,12.3471001 L162.303235,12.3471001 L157.662171,24.310187 L157.662171,24.6964285 L158.053838,24.6964285 L159.596632,24.6964285 L159.989044,24.6964285 L160.368029,23.9239455 L165.022521,23.9239455 L165.402251,24.6964285 L165.793917,24.6964285 L167.729124,24.6964285 L168.12079,24.6964285 L168.12079,24.310187 L163.087314,12.3471001 Z M164.251124,21.6102105 L161.152108,21.6102105 L162.695648,17.7507669 L164.251124,21.6102105 Z" id="Fill-22" fill="#003262"></path>
            <polygon id="Fill-24" fill="#003262" points="176.644875 22.3803909 172.382795 22.3803909 172.382795 12.7347528 172.382795 12.3470258 171.991129 12.3470258 170.055922 12.3470258 169.664256 12.3470258 169.664256 12.7347528 169.664256 24.3108555 169.664256 24.6963542 170.055922 24.6963542 176.644875 24.6963542 177.024605 24.6963542 177.024605 24.3108555 177.024605 22.7666324 177.024605 22.3803909"></polygon>
            <path d="M187.483448,21.2227063 L187.483448,21.2227063 C187.483448,20.8372076 187.483448,20.0647247 187.103717,19.6799687 C187.103717,19.2937273 186.712051,18.9089713 186.319638,18.5219871 L185.940654,18.1364884 C185.548241,17.7509897 185.548241,17.7509897 185.168511,17.3640054 L183.613781,17.3640054 L182.841638,17.3640054 C182.449971,17.3640054 182.449971,17.3640054 182.070241,16.9785067 L181.678575,16.9785067 L181.678575,16.5937508 C181.678575,16.2060238 181.286162,16.2060238 181.286162,15.8212679 L181.678575,15.8212679 L181.678575,15.4350264 C181.678575,15.0495277 181.678575,15.0495277 182.070241,15.0495277 C182.070241,15.0495277 182.070241,14.6632862 182.449971,14.6632862 L182.841638,14.6632862 L183.613781,14.6632862 C183.613781,14.6632862 184.005448,14.6632862 184.385178,15.0495277 C184.385178,15.0495277 184.776844,15.4350264 184.776844,15.8212679 L185.168511,15.8212679 C185.168511,16.2060238 185.168511,16.2060238 185.548241,15.8212679 L186.712051,14.6632862 C187.103717,14.6632862 187.103717,14.2770447 187.103717,14.2770447 L186.712051,13.8922888 C186.319638,13.5053046 185.940654,13.1198059 185.548241,12.7343071 C184.776844,12.3473229 184.385178,12.3473229 183.613781,12.3473229 L182.449971,12.3473229 C182.070241,12.3473229 181.286162,12.3473229 180.907178,12.7343071 C180.123098,13.1198059 179.743368,13.5053046 179.351702,13.8922888 C178.971971,14.2770447 178.971971,15.0495277 178.971971,15.8212679 L178.971971,17.3640054 C179.351702,17.7509897 179.351702,18.1364884 179.743368,18.5219871 C179.743368,18.5219871 180.123098,18.5219871 180.123098,18.9089713 C180.514765,19.2937273 180.907178,19.2937273 181.286162,19.6799687 L182.449971,19.6799687 L183.613781,19.6799687 L184.005448,20.0647247 L184.385178,20.0647247 C184.385178,20.4517089 184.385178,20.4517089 184.776844,20.4517089 L184.776844,21.2227063 C184.776844,21.6096906 184.385178,21.9951893 184.385178,21.9951893 C184.005448,22.380688 183.613781,22.380688 183.221368,22.380688 L182.841638,22.380688 L182.449971,22.380688 C182.070241,22.380688 182.070241,21.9951893 182.070241,21.9951893 L181.678575,21.6096906 L181.678575,21.2227063 C181.286162,21.2227063 181.286162,20.8372076 181.286162,20.8372076 L180.907178,20.8372076 L179.351702,21.9951893 C178.971971,22.380688 178.971971,22.380688 179.351702,22.7661867 L179.351702,23.1531709 C179.743368,23.5386696 180.123098,23.9241683 180.907178,24.3104098 C181.286162,24.6966513 182.070241,24.6966513 182.449971,24.6966513 L183.613781,24.6966513 C184.385178,24.6966513 184.776844,24.6966513 185.548241,24.3104098 C185.940654,23.9241683 186.319638,23.5386696 186.712051,23.1531709 C187.103717,22.7661867 187.483448,21.9951893 187.483448,21.2227063" id="Fill-26" fill="#003262"></path>
            <path d="M15.4947063,5.78767995 L15.1075159,6.17466419 L15.1075159,13.119583 L11.232627,14.6630634 C10.8476746,15.0500476 10.8476746,15.0500476 10.8476746,15.4348036 C11.232627,15.821045 11.6213095,15.821045 11.6213095,15.821045 L15.1075159,14.2775647 L15.1075159,15.0500476 C15.1075159,15.4348036 15.4947063,15.821045 15.8826429,15.821045 C16.2705794,15.821045 16.2705794,15.4348036 16.2705794,15.0500476 L16.2705794,6.55942012 L18.5944683,5.40143847 L18.5944683,15.0500476 C18.5944683,15.4348036 18.5944683,15.821045 18.9816587,15.821045 C19.3688492,15.821045 19.7560397,15.4348036 19.7560397,15.0500476 L19.7560397,5.01668254 L25.1781984,6.9456616 L25.1781984,21.2224835 C25.1781984,21.6102105 25.1781984,21.6102105 25.566881,21.6102105 C25.9540714,21.6102105 26.3412619,21.6102105 26.3412619,21.2224835 L26.3412619,15.0500476 L30.9890397,16.9782839 C31.3769762,16.9782839 31.7656587,16.9782839 31.7656587,16.593528 C32.1506111,16.205801 31.7656587,15.821045 31.3769762,15.821045 L26.3412619,13.892066 L26.3412619,6.55942012 L25.9540714,6.17466419 L24.016627,5.40143847 L24.016627,1.54273758 C24.016627,1.54273758 24.016627,1.15798165 23.6294365,1.15798165 L20.5296746,0 L20.1439762,0 L17.4328968,1.9304646 C17.0442143,1.9304646 17.0442143,2.31522053 17.0442143,2.31522053 L17.0442143,5.01668254 L15.4947063,5.78767995 Z M22.8543095,5.01668254 L20.9183571,4.24419959 L20.9183571,1.54273758 L22.8543095,1.9304646 L22.8543095,5.01668254 Z M18.2065317,2.70146201 L19.7560397,1.54273758 L19.7560397,3.85870089 L19.3688492,3.85870089 L18.9816587,3.85870089 L18.5944683,3.85870089 L18.2065317,4.24419959 L18.2065317,2.70146201 Z" id="Fill-28" fill="#808285"></path>
            <path d="M21.4176857,7.71784744 L21.4176857,7.33160597 C20.9176857,7.33160597 20.9176857,7.33160597 20.9176857,7.71784744 L20.9176857,8.48958762 C20.9176857,8.87582909 20.9176857,8.87582909 21.4176857,8.87582909 L21.4176857,8.48958762 L21.4176857,7.71784744 Z" id="Fill-30" fill="#808285"></path>
            <path d="M21.4176857,9.64660367 C20.9176857,9.64660367 20.9176857,9.64660367 20.9176857,10.0335879 L20.9176857,11.1908268 C20.9176857,11.1908268 20.9176857,11.5770683 21.4176857,11.5770683 L21.4176857,11.1908268 L21.4176857,10.0335879 L21.4176857,9.64660367 Z" id="Fill-32" fill="#808285"></path>
            <path d="M23.2428429,10.0332165 C23.7428429,10.0332165 23.7428429,9.64623228 23.7428429,9.64623228 L23.7428429,8.48973617 C23.7428429,8.10275193 23.7428429,8.10275193 23.2428429,8.10275193 L23.2428429,8.48973617 L23.2428429,9.64623228 L23.2428429,10.0332165 Z" id="Fill-34" fill="#808285"></path>
            <path d="M23.2428429,11.9619728 L23.2428429,12.3474715 C23.7428429,12.3474715 23.7428429,11.9619728 23.7428429,11.9619728 L23.7428429,10.8039911 C23.7428429,10.8039911 23.7428429,10.4184924 23.2428429,10.4184924 L23.2428429,10.8039911 L23.2428429,11.9619728 Z" id="Fill-36" fill="#808285"></path>
            <path d="M23.2428429,14.2773418 L23.2428429,14.6635833 C23.7428429,14.6635833 23.7428429,14.6635833 23.7428429,14.2773418 L23.7428429,13.1193602 C23.7428429,13.1193602 23.7428429,12.7346043 23.2428429,12.7346043 L23.2428429,13.1193602 L23.2428429,14.2773418 Z" id="Fill-38" fill="#808285"></path>
            <path d="M2.32478413,21.2227063 C2.7119746,21.6096906 2.7119746,21.6096906 3.09841905,21.6096906 L3.09841905,21.2227063 C3.09841905,21.2227063 3.09841905,20.8372076 2.7119746,20.4517089 L2.7119746,19.2937273 L2.7119746,18.1364884 C3.09841905,18.1364884 3.48710159,17.7509897 3.87354603,17.3640054 C4.26073651,17.3640054 4.26073651,17.3640054 4.26073651,16.9785067 L4.26073651,16.5937508 L4.26073651,15.8212679 C4.26073651,15.4350264 4.64867302,15.4350264 4.64867302,15.0495277 C5.03586349,14.6632862 5.42305397,14.6632862 5.81173651,14.6632862 L6.19818095,14.6632862 C6.58537143,14.6632862 6.58537143,15.0495277 6.97330794,15.0495277 L6.97330794,15.4350264 L7.74768889,15.4350264 L7.74768889,15.0495277 C7.74768889,15.0495277 7.36049841,14.6632862 6.97330794,14.2770447 L6.58537143,14.2770447 C6.19818095,13.8922888 6.19818095,13.8922888 5.81173651,13.8922888 C5.42305397,13.8922888 4.64867302,14.2770447 4.26073651,14.6632862 C3.87354603,14.6632862 3.87354603,15.0495277 3.48710159,15.4350264 L3.48710159,16.5937508 L3.48710159,16.9785067 C3.09841905,17.3640054 2.7119746,17.7509897 2.32478413,18.1364884 C1.93610159,18.5219871 1.93610159,18.9089713 1.93610159,19.2937273 C1.93610159,20.0647247 1.93610159,20.4517089 2.32478413,20.8372076 L2.32478413,21.2227063 Z" id="Fill-40" fill="#808285"></path>
            <path d="M8.52251746,13.5055274 C8.52251746,13.5055274 8.91045397,13.5055274 8.91045397,13.8925116 L8.13532698,17.7512125 C8.13532698,18.1359685 8.13532698,18.5222099 8.52251746,18.5222099 C8.91045397,18.5222099 9.29689841,18.5222099 9.29689841,18.1359685 L10.0705333,13.8925116 L11.6207873,13.8925116 C12.0094698,13.5055274 12.7838508,13.1192859 13.1702952,12.73453 C13.5574857,11.962047 13.9461683,11.5765483 13.9461683,10.8040654 L13.1702952,10.8040654 L13.9461683,10.8040654 L13.9461683,8.87582909 C13.9461683,8.10334614 13.9461683,6.94536449 13.5574857,6.17436708 C13.5574857,5.78738284 13.1702952,5.40188413 12.7838508,5.40188413 C12.7838508,5.01638543 12.3951683,4.63088673 12.0094698,4.63088673 L11.2328508,4.63088673 C10.8471524,4.63088673 10.4592159,4.63088673 10.0705333,5.01638543 C9.29689841,5.40188413 8.91045397,6.17436708 8.13532698,6.94536449 C7.74739048,7.71784744 7.3602,8.48958762 7.3602,9.26058502 C6.97375556,9.6468265 6.97375556,10.033068 6.97375556,10.033068 C6.97375556,10.8040654 7.3602,11.5765483 7.74739048,12.346803 C8.13532698,12.73453 8.13532698,13.1192859 8.52251746,13.5055274 L8.52251746,13.5055274 Z M8.13532698,9.6468265 C8.52251746,8.48958762 8.91045397,7.71784744 9.68558095,6.94536449 C10.0705333,6.55912302 10.4592159,6.17436708 10.4592159,6.17436708 C10.8471524,5.78738284 11.2328508,5.78738284 11.2328508,5.78738284 L11.6207873,5.78738284 C11.6207873,5.78738284 12.0094698,5.78738284 12.0094698,6.17436708 C12.3951683,6.17436708 12.3951683,6.55912302 12.7838508,7.33160597 C12.7838508,7.71784744 13.1702952,8.10334614 13.1702952,8.87582909 C13.1702952,9.6468265 12.7838508,10.033068 12.7838508,10.8040654 C12.7838508,10.8040654 12.7838508,11.1910496 12.3951683,11.5765483 C12.0094698,11.962047 12.0094698,12.346803 11.6207873,12.346803 C11.2328508,12.73453 10.4592159,12.73453 10.0705333,12.73453 C9.68558095,12.73453 9.29689841,12.73453 9.29689841,12.346803 C8.91045397,12.346803 8.52251746,11.962047 8.52251746,11.5765483 C8.52251746,11.1910496 8.13532698,10.4185667 8.13532698,10.033068 L8.13532698,9.6468265 Z" id="Fill-42" fill="#808285"></path>
            <path d="M22.4683873,24.6964285 C22.0797048,25.0819272 22.0797048,25.4681686 22.0797048,25.8544101 L22.0797048,26.239166 L22.0797048,27.011649 C22.0797048,27.3971477 22.4683873,27.3971477 22.8548317,27.7826464 C23.2427683,28.1696306 23.6299587,28.1696306 24.0164032,28.1696306 L24.7915302,28.1696306 C24.7915302,28.5551293 25.1787206,28.940628 25.5666571,29.3268695 C25.9538476,29.713111 26.3410381,29.713111 27.1161651,29.713111 L29.0536095,29.713111 C29.4408,29.713111 29.8279905,29.713111 30.215181,29.3268695 C30.6031175,29.3268695 30.6031175,28.940628 30.9888159,28.940628 C31.3767524,28.1696306 31.3767524,27.7826464 31.7654349,27.011649 C32.1511333,26.239166 32.1511333,25.0819272 32.1511333,24.6964285 L32.1511333,23.1529481 L32.1511333,22.7659639 L31.7654349,22.7659639 L24.4050857,22.7659639 C24.0164032,22.7659639 24.0164032,23.1529481 24.0164032,23.1529481 L24.0164032,23.9239455 L24.0164032,24.310187 L23.6299587,24.310187 L22.8548317,24.310187 L22.4683873,24.6964285 Z M30.6031175,26.239166 C30.6031175,27.011649 30.215181,27.7826464 30.215181,28.1696306 C29.8279905,28.1696306 29.8279905,28.5551293 29.4408,28.5551293 L29.0536095,28.5551293 L27.1161651,28.5551293 L26.3410381,28.5551293 L25.9538476,28.1696306 C25.9538476,28.1696306 25.5666571,27.7826464 25.5666571,27.3971477 C25.1787206,27.011649 25.1787206,26.239166 25.1787206,25.4681686 C25.1787206,25.0819272 24.7915302,24.310187 24.7915302,23.9239455 L30.9888159,23.9239455 C30.9888159,24.310187 30.9888159,25.4681686 30.6031175,26.239166 L30.6031175,26.239166 Z M23.2427683,25.8544101 L23.2427683,25.4681686 L23.6299587,25.4681686 L24.0164032,25.4681686 C24.0164032,25.8544101 24.0164032,26.6254075 24.4050857,27.011649 L23.6299587,27.011649 L23.2427683,26.6254075 L23.2427683,26.239166 L23.2427683,25.8544101 Z" id="Fill-44" fill="#808285"></path>
            <path d="M0.773709524,28.9405538 C0.773709524,28.9405538 1.16239206,28.9405538 1.55032857,28.5550551 C1.55032857,28.5550551 1.93677302,27.7825721 3.09834444,26.6253332 C3.87347143,27.0115747 4.64859841,27.7825721 5.42297937,28.1695564 C6.58529683,28.5550551 7.74761429,28.9405538 9.29712222,28.9405538 C10.8473762,28.9405538 11.6210111,28.5550551 12.7840746,28.5550551 C13.170519,28.1695564 13.5577095,28.1695564 13.945646,27.7825721 C14.719281,27.3970734 15.1079635,27.0115747 15.1079635,26.6253332 C15.4944079,26.2390918 15.4944079,25.8543358 15.4944079,25.8543358 C15.4944079,25.8543358 15.4944079,25.4680944 15.1079635,25.0818529 C15.1079635,25.0818529 15.1079635,24.6963542 14.719281,24.3108555 C14.3328365,23.9238712 13.945646,23.5391153 12.7840746,23.1528738 C12.0096937,22.7658896 10.8473762,22.7658896 8.90993175,22.7658896 C7.74761429,22.7658896 6.58529683,23.1528738 5.42297937,23.5391153 C4.64859841,23.9238712 3.87347143,24.3108555 3.09834444,25.0818529 C3.09834444,24.6963542 3.09834444,24.6963542 2.7119,24.6963542 C2.32470952,23.9238712 2.32470952,23.9238712 1.93677302,23.5391153 L1.93677302,23.1528738 C1.93677302,22.7658896 1.55032857,22.7658896 1.16239206,22.7658896 C0.773709524,22.7658896 0.773709524,23.1528738 0.773709524,23.5391153 C0.773709524,23.5391153 1.16239206,24.6963542 2.32470952,25.8543358 L1.93677302,26.2390918 C0.773709524,27.3970734 0.388011111,27.7825721 0.388011111,28.1695564 C0.388011111,28.1695564 0.388011111,28.5550551 0.773709524,28.9405538 M13.5577095,24.6963542 C13.945646,25.0818529 13.945646,25.4680944 13.945646,25.4680944 L14.3328365,25.8543358 L13.945646,26.2390918 C13.945646,26.6253332 13.5577095,27.0115747 12.7840746,27.0115747 C12.3953921,27.3970734 11.6210111,27.3970734 10.8473762,27.7825721 L10.8473762,23.9238712 C11.6210111,23.9238712 12.0096937,24.3108555 12.3953921,24.3108555 C12.7840746,24.3108555 13.170519,24.6963542 13.5577095,24.6963542 M5.8116619,24.6963542 C6.97397937,24.3108555 8.13555079,23.9238712 8.90993175,23.9238712 L9.68505873,23.9238712 L9.68505873,27.7825721 L9.29712222,27.7825721 C7.74761429,27.7825721 6.97397937,27.3970734 5.8116619,27.0115747 C5.03578889,26.6253332 4.64859841,26.2390918 3.87347143,25.8543358 C4.64859841,25.4680944 5.42297937,25.0818529 5.8116619,24.6963542" id="Fill-46" fill="#808285"></path>
            <path d="M39.1244413,24.3105584 C39.1244413,24.3105584 39.5131238,24.6967998 39.8995683,24.6967998 L41.8362667,24.6967998 L41.8362667,25.8540387 C41.4475841,26.2395374 41.4475841,26.2395374 41.4475841,26.6250361 C41.4475841,26.6250361 41.0626317,26.6250361 41.0626317,27.0120204 C40.2875048,27.7830178 39.1244413,28.1692593 37.9621238,28.1692593 C36.8005524,28.1692593 35.6374889,27.7830178 34.863854,27.0120204 C34.863854,26.6250361 34.4759175,26.6250361 34.4759175,26.6250361 C34.4759175,26.2395374 34.088727,25.8540387 34.088727,25.46854 L34.088727,24.6967998 L33.7015365,24.3105584 C33.7015365,23.9235741 33.3136,23.9235741 32.9271556,23.9235741 C32.9271556,23.9235741 32.539219,24.3105584 32.9271556,24.6967998 L32.9271556,25.0815558 C32.9271556,25.46854 33.3136,26.2395374 33.3136,26.6250361 L33.7015365,27.0120204 C33.7015365,27.3967763 34.088727,27.3967763 34.088727,27.7830178 C34.4759175,28.1692593 35.2510444,28.5555007 35.6374889,28.5555007 L35.6374889,28.9402567 C35.6374889,29.3272409 35.6374889,29.7127396 36.0261714,29.7127396 L39.5131238,29.7127396 C39.8995683,29.7127396 39.8995683,29.3272409 39.8995683,28.9402567 C40.6739492,28.5555007 41.4475841,28.1692593 41.8362667,27.7830178 C42.2242032,27.3967763 42.2242032,27.3967763 42.2242032,27.0120204 C42.6099016,26.6250361 42.9978381,26.2395374 42.9978381,25.8540387 C42.9978381,25.46854 42.9978381,25.0815558 43.3865206,24.3105584 C43.3865206,23.9235741 42.9978381,23.9235741 42.9978381,23.9235741 C42.9978381,23.5388182 42.9978381,23.5388182 42.6099016,23.5388182 L39.8995683,23.5388182 C39.5131238,23.5388182 39.1244413,23.9235741 39.1244413,24.3105584" id="Fill-48" fill="#808285"></path>
            <path d="M35.250746,24.6964285 L39.5128254,20.8377276 C39.8992698,20.4514861 39.8992698,20.0652446 39.8992698,20.0652446 C39.5128254,19.6797459 39.1241429,19.6797459 39.1241429,19.6797459 L34.475619,23.9239455 C34.0884286,23.9239455 34.0884286,24.310187 34.475619,24.6964285 L35.250746,24.6964285 Z" id="Fill-50" fill="#808285"></path>
            <path d="M36.8003286,24.6964285 L37.5754556,24.6964285 L42.2247254,20.8377276 L42.2247254,20.0652446 C41.8360429,19.6797459 41.4473603,19.6797459 41.4473603,19.6797459 L36.8003286,23.9239455 L36.8003286,24.6964285 Z" id="Fill-52" fill="#808285"></path>
            <path d="M27.8916651,18.5221357 C28.2788556,18.5221357 28.2788556,18.5221357 28.2788556,18.1358942 L27.8916651,18.1358942 C27.5029825,18.1358942 27.1165381,18.1358942 27.1165381,18.5221357 L27.1165381,19.2938758 L27.1165381,20.0648732 L27.5029825,20.4518575 L27.8916651,20.8373562 L27.8916651,21.2228549 C27.8916651,21.2228549 27.5029825,21.2228549 27.5029825,21.6098391 C27.1165381,21.6098391 27.1165381,21.6098391 27.1165381,21.9953378 L27.5029825,21.9953378 C27.8916651,21.9953378 28.2788556,21.9953378 28.2788556,21.6098391 C28.2788556,21.6098391 28.6653,21.2228549 28.6653,20.8373562 C28.6653,20.4518575 28.2788556,20.4518575 27.8916651,20.0648732 L27.8916651,19.6801173 L27.5029825,19.2938758 L27.5029825,18.9091199 C27.8916651,18.9091199 27.8916651,18.5221357 27.8916651,18.5221357" id="Fill-54" fill="#808285"></path>
            <path d="M29.8281397,18.5221357 L29.8281397,18.1358942 L29.4402032,18.1358942 C29.0537587,18.1358942 29.0537587,18.1358942 28.6650762,18.5221357 L28.6650762,19.2938758 L28.6650762,20.0648732 C29.0537587,20.0648732 29.0537587,20.4518575 29.4402032,20.4518575 L29.4402032,20.8373562 L29.4402032,21.2228549 L29.0537587,21.6098391 C29.0537587,21.6098391 28.6650762,21.6098391 28.6650762,21.9953378 L29.0537587,21.9953378 C29.4402032,21.9953378 29.8281397,21.9953378 29.8281397,21.6098391 C30.2153302,21.6098391 30.2153302,21.2228549 30.2153302,20.8373562 C30.2153302,20.4518575 29.8281397,20.4518575 29.8281397,20.0648732 C29.4402032,20.0648732 29.4402032,19.6801173 29.4402032,19.6801173 L29.4402032,19.2938758 L29.4402032,18.9091199 C29.4402032,18.9091199 29.4402032,18.5221357 29.8281397,18.5221357" id="Fill-56" fill="#808285"></path>
            <path d="M31.3770508,18.5221357 C31.3770508,18.5221357 31.7657333,18.5221357 31.7657333,18.1358942 L30.9883683,18.1358942 C30.9883683,18.1358942 30.6034159,18.1358942 30.6034159,18.5221357 C30.2147333,18.5221357 30.2147333,18.9091199 30.2147333,19.2938758 C30.2147333,19.2938758 30.2147333,19.6801173 30.6034159,20.0648732 C30.6034159,20.0648732 30.6034159,20.4518575 30.9883683,20.4518575 C30.9883683,20.8373562 31.3770508,20.8373562 31.3770508,20.8373562 L30.9883683,21.2228549 L30.6034159,21.6098391 L30.6034159,21.9953378 L30.9883683,21.9953378 C31.3770508,21.9953378 31.3770508,21.9953378 31.7657333,21.6098391 L31.7657333,20.8373562 C31.7657333,20.4518575 31.7657333,20.4518575 31.3770508,20.0648732 L30.9883683,19.6801173 L30.9883683,19.2938758 L30.9883683,18.9091199 L31.3770508,18.5221357 Z" id="Fill-58" fill="#808285"></path>
            <path d="M32.1507603,5.01660826 C32.1507603,5.40210697 32.5394429,6.55934585 32.9273794,7.3318288 C33.3138238,8.1028262 33.3138238,8.48981045 33.7017603,8.87530915 L33.7017603,9.26080785 L33.7017603,9.64630656 L34.0889508,10.0332908 C34.0889508,10.8042882 33.7017603,11.1912725 33.3138238,11.9622699 C33.3138238,11.9622699 33.3138238,12.3470258 32.9273794,12.3470258 C32.9273794,12.7347528 32.5394429,12.7347528 32.1507603,12.7347528 L31.7650619,12.7347528 L30.9884429,12.7347528 C30.6034905,12.3470258 30.2148079,12.3470258 30.2148079,11.9622699 C29.8283635,11.5767712 29.440427,11.1912725 29.440427,10.8042882 C29.440427,10.4180467 29.440427,10.0332908 29.0539825,9.64630656 L29.0539825,7.3318288 C29.0539825,6.94558732 28.6653,6.55934585 28.6653,6.17458992 L28.6653,5.78760567 C28.6653,5.40210697 28.2788556,5.40210697 28.2788556,5.40210697 C27.8916651,5.40210697 27.5037286,5.78760567 27.5037286,6.17458992 C27.5037286,6.17458992 27.8916651,6.94558732 27.8916651,8.1028262 C27.8916651,8.87530915 27.8916651,9.64630656 28.2788556,10.0332908 L28.2788556,10.8042882 L28.2788556,11.1912725 C28.2788556,11.5767712 28.6653,11.9622699 28.6653,11.9622699 C29.0539825,12.7347528 29.440427,13.1195087 30.2148079,13.5057502 C30.6034905,13.8919917 31.3771254,13.8919917 31.7650619,13.8919917 L32.1507603,13.8919917 L32.9273794,16.9782096 C32.9273794,17.3637083 33.3138238,17.7514354 33.7017603,17.3637083 C34.0889508,17.3637083 34.0889508,16.9782096 34.0889508,16.5934537 L33.3138238,13.5057502 C33.3138238,13.5057502 33.7017603,13.5057502 33.7017603,13.1195087 C34.0889508,12.7347528 34.4753952,12.3470258 34.8640778,11.9622699 L34.8640778,10.0332908 L34.8640778,9.26080785 C34.8640778,8.87530915 34.4753952,8.48981045 34.4753952,8.1028262 C34.0889508,6.55934585 32.9273794,4.63036679 32.9273794,4.63036679 C32.9273794,4.24412531 32.5394429,4.24412531 32.1507603,4.24412531 C32.1507603,4.24412531 31.7650619,4.63036679 32.1507603,5.01660826" id="Fill-60" fill="#808285"></path>
            <path d="M29.4405762,5.01660826 C29.0533857,5.01660826 29.0533857,5.40210697 29.0533857,5.40210697 L30.2149571,9.64630656 C30.2149571,10.0332908 30.6036397,10.0332908 30.6036397,10.0332908 C30.9885921,10.0332908 31.3772746,9.64630656 30.9885921,9.26080785 L30.2149571,5.40210697 C29.8285127,5.01660826 29.8285127,4.63036679 29.4405762,5.01660826" id="Fill-62" fill="#808285"></path>
            <path d="M31.3770508,9.26073358 C31.7657333,9.26073358 31.7657333,9.64697505 32.1506857,9.64697505 C32.5393683,9.64697505 32.5393683,9.26073358 32.5393683,8.87523487 L31.3770508,5.01653399 C31.3770508,4.63103528 30.9883683,4.24405104 30.9883683,4.63103528 C30.6034159,4.63103528 30.2147333,5.01653399 30.6034159,5.01653399 L31.3770508,9.26073358 Z" id="Fill-64" fill="#808285"></path>
            <g id="Group-68" transform="translate(0.000000, 15.300807)">
                <mask id="mask-4" fill="white">
                    <use xlink:href="#path-3"></use>
                </mask>
                <g id="Clip-67"></g>
                <path d="M42.9980619,15.1833009 L20.9177603,15.1833009 L20.9177603,9.00937951 C21.3064429,9.00937951 21.3064429,9.00937951 21.6913952,8.62313804 C22.0800778,8.62313804 22.0800778,8.23763933 22.4680143,8.23763933 C22.4680143,7.85214063 22.8544587,7.46515638 22.8544587,7.46515638 C22.8544587,7.07965768 22.4680143,6.69415898 22.4680143,6.30940305 C22.4680143,5.92167603 22.0800778,5.92167603 22.0800778,5.92167603 L20.9177603,5.5369201 L20.9177603,2.06297514 L20.5298238,1.67747644 L17.0443635,0.520237556 L16.657173,0.520237556 L4.64904603,5.15067862 C4.64904603,5.15067862 4.26036349,5.5369201 4.64904603,5.92167603 C4.64904603,6.30940305 5.03549048,6.30940305 5.42342698,6.30940305 L16.2707286,2.06297514 L16.2707286,5.15067862 C16.2707286,5.15067862 15.882046,5.5369201 15.882046,5.92167603 C15.882046,5.92167603 15.4948556,6.30940305 15.4948556,6.69415898 C15.4948556,7.46515638 15.882046,7.85214063 15.882046,8.23763933 L16.2707286,8.62313804 L16.2707286,15.1833009 L0.773411111,15.1833009 C0.38845873,15.1833009 0.38845873,15.5702852 0.38845873,15.9550411 C0.38845873,16.3412826 0.38845873,16.3412826 0.773411111,16.3412826 L42.9980619,16.3412826 C43.3867444,16.3412826 43.3867444,16.3412826 43.3867444,15.9550411 C43.3867444,15.5702852 43.3867444,15.1833009 42.9980619,15.1833009 L42.9980619,15.1833009 Z M21.3064429,7.46515638 L21.3064429,7.85214063 L20.5298238,7.85214063 L20.1441254,7.85214063 L17.0443635,7.85214063 L17.0443635,7.46515638 C17.0443635,7.46515638 16.657173,7.07965768 16.657173,6.69415898 C16.657173,6.69415898 16.657173,6.30940305 17.0443635,6.30940305 L17.0443635,5.92167603 L21.3064429,7.07965768 C21.3064429,7.07965768 21.6913952,7.07965768 21.6913952,7.46515638 L21.3064429,7.46515638 Z M19.7561889,5.5369201 L17.4323,5.15067862 L17.4323,2.06297514 L19.7561889,2.44995939 L19.7561889,5.5369201 Z M17.0443635,9.00937951 L19.7561889,9.00937951 L19.7561889,10.1673612 C19.3689984,10.1673612 19.3689984,10.1673612 19.3689984,10.5536026 L19.3689984,10.9383586 C19.3689984,11.3246 19.3689984,11.3246 19.7561889,11.7108415 L19.7561889,15.1833009 L17.0443635,15.1833009 L17.0443635,9.00937951 Z" id="Fill-66" fill="#808285" mask="url(#mask-4)"></path>
            </g>
            <path d="M12.3954667,4.24412531 L12.7841492,4.24412531 C12.7841492,3.85862661 13.1705937,3.47312791 13.5577841,3.47312791 C13.9457206,3.08614366 14.7193556,2.70138773 15.4944825,2.70138773 L15.882419,2.70138773 C16.2703556,2.70138773 16.2703556,2.70138773 16.2703556,2.31514626 L15.882419,1.93039033 L15.4944825,1.93039033 C14.7193556,1.93039033 14.3329111,2.31514626 13.9457206,2.31514626 C13.1705937,2.70138773 12.7841492,3.08614366 12.7841492,3.08614366 C12.3954667,3.47312791 12.3954667,3.85862661 12.3954667,3.85862661 C12.0090222,3.85862661 12.3954667,4.24412531 12.3954667,4.24412531" id="Fill-69" fill="#808285"></path>
            <path d="M36.8003286,12.7344557 C37.1890111,12.7344557 37.5754556,12.3474715 37.5754556,11.5764741 C37.5754556,11.1909753 37.1890111,10.4184924 36.8003286,10.4184924 C36.0259476,10.4184924 35.6372651,11.1909753 35.6372651,11.5764741 C35.6372651,12.3474715 36.0259476,12.7344557 36.8003286,12.7344557 M36.8003286,11.1909753 C36.8003286,11.1909753 37.1890111,11.1909753 37.1890111,11.5764741 C37.1890111,11.9619728 36.8003286,11.9619728 36.8003286,11.9619728 C36.4123921,11.9619728 36.0259476,11.9619728 36.0259476,11.5764741 C36.0259476,11.1909753 36.4123921,11.1909753 36.8003286,11.1909753" id="Fill-71" fill="#808285"></path>
            <path d="M5.8115873,13.1196573 C6.58522222,13.1196573 6.97390476,12.3471743 6.97390476,11.9616756 C6.97390476,11.1906782 6.58522222,10.8044368 5.8115873,10.8044368 C5.42290476,10.8044368 5.03571429,11.1906782 5.03571429,11.9616756 C5.03571429,12.3471743 5.42290476,13.1196573 5.8115873,13.1196573 M5.8115873,11.5769197 C6.19877778,11.5769197 6.58522222,11.5769197 6.58522222,11.9616756 C6.58522222,11.9616756 6.19877778,12.3471743 5.8115873,12.3471743 L5.42290476,11.9616756 C5.42290476,11.5769197 5.8115873,11.5769197 5.8115873,11.5769197" id="Fill-73" fill="#808285"></path>
            <path d="M24.7916794,2.31536909 L24.7916794,2.31536909 C24.7916794,2.31536909 25.1788698,2.31536909 25.1788698,2.70161056 L25.5668063,2.70161056 L25.5668063,3.47335074 L25.5668063,3.85884944 C25.5668063,4.24434815 25.5668063,4.24434815 25.9539968,4.24434815 L26.3411873,4.24434815 C26.3411873,4.24434815 26.3411873,3.85884944 26.7298698,3.47335074 L27.5035048,3.47335074 C27.5035048,3.08636649 27.8914413,3.08636649 27.8914413,3.08636649 C28.2786317,3.08636649 28.6650762,3.08636649 29.0537587,3.47335074 L29.8281397,3.47335074 C29.8281397,3.08636649 29.8281397,3.08636649 29.4402032,3.08636649 C29.0537587,2.70161056 28.6650762,2.31536909 27.8914413,2.31536909 C27.5035048,2.31536909 27.5035048,2.70161056 27.1163143,2.70161056 C26.7298698,2.70161056 26.7298698,3.08636649 26.3411873,3.08636649 L26.3411873,2.70161056 L25.5668063,1.92987038 L25.1788698,1.92987038 C24.7916794,1.54288614 24.7916794,1.92987038 24.7916794,1.92987038 L24.7916794,2.31536909 Z" id="Fill-75" fill="#808285"></path>
            <path d="M34.863854,18.5221357 L34.088727,19.6801173 L33.7015365,19.6801173 C33.3136,19.6801173 33.3136,19.6801173 32.9271556,20.0648732 C32.9271556,20.4518575 33.3136,20.8373562 33.7015365,20.8373562 L34.088727,21.2228549 C34.088727,21.6098391 34.088727,21.6098391 34.4751714,21.6098391 C34.863854,21.6098391 35.2510444,21.2228549 34.863854,21.2228549 L34.863854,20.4518575 L36.0261714,19.2938758 C36.4126159,19.2938758 36.8005524,19.2938758 37.1884889,18.9091199 C37.5756794,18.9091199 38.3508063,18.5221357 38.7372508,18.5221357 C39.1244413,18.1358942 39.1244413,18.1358942 39.5123778,18.1358942 C39.5123778,17.7511382 39.8995683,17.7511382 39.8995683,17.3634112 C40.2875048,17.3634112 40.2875048,16.9786553 40.6739492,16.5931566 L40.6739492,15.4351749 L40.6739492,14.6634348 C40.6739492,14.6634348 40.2875048,14.2771933 40.2875048,13.8924374 C39.8995683,13.8924374 39.8995683,13.5054531 39.5123778,13.5054531 C39.1244413,13.1199544 38.7372508,13.1199544 38.3508063,13.1199544 L37.1884889,13.1199544 C37.1884889,13.1199544 36.8005524,13.5054531 36.4126159,13.8924374 C36.0261714,14.2771933 35.6374889,14.6634348 35.6374889,15.0496762 C35.2510444,15.8206736 35.2510444,16.5931566 35.2510444,17.3634112 C34.863854,18.1358942 34.863854,18.5221357 34.863854,18.5221357 M36.8005524,15.4351749 C36.8005524,15.0496762 37.1884889,14.6634348 37.1884889,14.6634348 C37.5756794,14.2771933 37.5756794,14.2771933 37.9621238,14.2771933 L38.3508063,14.2771933 L38.7372508,14.2771933 C39.1244413,14.6634348 39.1244413,14.6634348 39.5123778,14.6634348 L39.5123778,15.0496762 L39.5123778,15.4351749 L39.5123778,16.2061723 L39.1244413,16.5931566 C39.1244413,16.9786553 38.7372508,16.9786553 38.7372508,16.9786553 C38.3508063,17.3634112 37.9621238,17.7511382 37.1884889,17.7511382 L36.8005524,18.1358942 L36.0261714,18.1358942 C36.0261714,17.7511382 36.4126159,17.3634112 36.4126159,16.9786553 C36.4126159,16.2061723 36.4126159,15.8206736 36.8005524,15.4351749" id="Fill-77" fill="#808285"></path>
        </g>
    </g>
</svg>