<?xml version="1.0" encoding="UTF-8" standalone="no"?>
<svg width="360px" height="61px" viewBox="0 0 360 61" version="1.1" xmlns="http://www.w3.org/2000/svg" xmlns:xlink="http://www.w3.org/1999/xlink">
    <!-- Generator: Sketch 39.1 (31720) - http://www.bohemiancoding.com/sketch -->
    <title>Group 4</title>
    <desc>Created with Sketch.</desc>
    <defs>
        <polygon id="path-1" points="0 0.890137257 0 7.57868268 1.43182341 7.57868268 1.43182341 0.890137257 0 0.890137257"></polygon>
        <polygon id="path-3" points="0.745923413 30.4687766 83.3117806 30.4687766 83.3117806 0.0018514142 0.745923413 0.0018514142"></polygon>
    </defs>
    <g id="01-Main" stroke="none" stroke-width="1" fill="none" fill-rule="evenodd">
        <g id="01-Main-EN-Large-Devices-(-≥-1200px-)" transform="translate(-540.000000, -36.000000)">
            <g id="Group-7">
                <g id="Group-5">
                    <g id="Group-4" transform="translate(540.000000, 36.000000)">
                        <g id="Group-2">
                            <g id="Page-1">
                                <g id="Group-3" transform="translate(0.000000, 26.604848)">
                                    <mask id="mask-2" fill="white">
                                        <use xlink:href="#path-1"></use>
                                    </mask>
                                    <g id="Clip-2"></g>
                                    <path d="M0.650453181,6.83344483 L-0.000716269842,6.83344483 L-0.000716269842,7.48356953 C-0.000716269842,6.83344483 -0.000716269842,6.83344483 0.650453181,6.83344483" id="Fill-1" fill="#6076A2" mask="url(#mask-2)"></path>
                                </g>
                                <polygon id="Fill-4" fill="#ED1944" points="115.297097 23.7775215 101.908581 23.7775215 101.16366 23.7775215 101.16366 24.5227593 101.16366 46.8155267 101.16366 47.5593342 101.908581 47.5593342 105.627454 47.5593342 106.370942 46.8155267 106.370942 41.6160266 106.370942 39.3846043 113.808688 39.3846043 114.553609 38.6407968 114.553609 34.9260508 113.808688 34.1836738 106.370942 34.1836738 106.370942 33.4384359 106.370942 30.4674973 106.370942 28.2375054 115.297097 28.2375054 116.040585 28.2375054 116.040585 27.4951283 116.040585 24.5227593 116.040585 23.7775215"></polygon>
                                <path d="M139.83908,26.7528943 C139.098457,26.0076565 137.610048,25.2652794 136.123072,24.5229024 C134.634663,23.7776645 133.146255,23.0352875 131.660711,23.0352875 C129.427382,23.0352875 127.938973,23.7776645 126.450564,24.5229024 C124.965021,25.2652794 124.2201,26.0076565 122.733124,26.7528943 C121.986771,28.2376484 121.246148,29.7238329 120.501227,31.208587 C119.754874,32.6962019 119.015683,34.1838168 119.015683,35.6685709 C119.015683,37.1547554 119.754874,38.6409399 120.501227,40.1285548 C121.246148,41.6161697 121.986771,43.0994934 122.733124,44.5871082 C124.2201,45.3294853 124.965021,46.0718623 126.450564,46.8156698 C127.938973,47.5594772 129.427382,47.5594772 131.660711,47.5594772 C133.146255,47.5594772 134.634663,47.5594772 136.123072,46.8156698 C137.610048,46.0718623 139.098457,45.3294853 139.83908,44.5871082 C141.330354,43.0994934 142.070977,41.6161697 142.815898,40.1285548 C143.562251,38.6409399 143.562251,37.1547554 143.562251,35.6685709 C143.562251,34.1838168 143.562251,32.6962019 142.815898,31.208587 C142.070977,29.7238329 141.330354,28.2376484 139.83908,26.7528943 M131.660711,43.0994934 C130.17087,43.0994934 129.427382,43.0994934 128.682461,42.3571163 C127.938973,42.3571163 127.196917,41.6161697 126.450564,40.8695014 C125.708509,40.1285548 125.708509,39.3847473 124.965021,38.6409399 C124.965021,37.8985628 124.2201,36.4138087 124.2201,35.6685709 C124.2201,34.9261938 124.965021,33.4385789 124.965021,32.6962019 C125.708509,31.9552553 125.708509,31.208587 126.450564,30.4676404 C127.196917,29.7238329 127.938973,28.9828863 128.682461,28.9828863 C129.427382,28.2376484 130.17087,28.2376484 131.660711,28.2376484 C132.404199,28.2376484 133.146255,28.2376484 133.892608,28.9828863 C135.378152,28.9828863 136.123072,29.7238329 136.123072,30.4676404 C136.86656,31.208587 137.610048,31.9552553 137.610048,32.6962019 C138.353537,33.4385789 138.353537,34.9261938 138.353537,35.6685709 C138.353537,36.4138087 138.353537,37.8985628 137.610048,38.6409399 C137.610048,39.3847473 136.86656,40.1285548 136.123072,40.8695014 C136.123072,41.6161697 135.378152,42.3571163 133.892608,42.3571163 C133.146255,43.0994934 132.404199,43.0994934 131.660711,43.0994934" id="Fill-6" fill="#ED1944"></path>
                                <path d="M167.363754,26.7528943 C166.617401,26.0076565 165.131858,25.2652794 163.644881,24.5229024 C162.153608,23.7776645 160.668064,23.0352875 159.18252,23.0352875 C157.694112,23.0352875 155.460782,23.7776645 153.975238,24.5229024 C152.48683,25.2652794 151.744774,26.0076565 150.254933,26.7528943 C149.511445,28.2376484 148.766524,29.7238329 148.023036,31.208587 C147.279548,32.6962019 146.534627,34.1838168 146.534627,35.6685709 C146.534627,37.1547554 147.279548,38.6409399 148.023036,40.1285548 C148.766524,41.6161697 149.511445,43.0994934 150.254933,44.5871082 C151.744774,45.3294853 152.48683,46.0718623 153.975238,46.8156698 C155.460782,47.5594772 157.694112,47.5594772 159.18252,47.5594772 C160.668064,47.5594772 162.153608,47.5594772 163.644881,46.8156698 C165.131858,46.0718623 166.617401,45.3294853 167.363754,44.5871082 C168.849298,43.0994934 169.595651,41.6161697 170.337707,40.1285548 C171.082627,38.6409399 171.082627,37.1547554 171.082627,35.6685709 C171.082627,34.1838168 171.082627,32.6962019 170.337707,31.208587 C169.595651,29.7238329 168.849298,28.2376484 167.363754,26.7528943 M159.18252,43.0994934 C157.694112,43.0994934 156.949191,43.0994934 156.207135,42.3571163 C155.460782,42.3571163 154.718727,41.6161697 153.975238,40.8695014 C153.230318,40.1285548 153.230318,39.3847473 152.48683,38.6409399 C152.48683,37.8985628 151.744774,36.4138087 151.744774,35.6685709 C151.744774,34.9261938 152.48683,33.4385789 152.48683,32.6962019 C153.230318,31.9552553 153.230318,31.208587 153.975238,30.4676404 C154.718727,29.7238329 155.460782,28.9828863 156.207135,28.9828863 C156.949191,28.2376484 158.4376,28.2376484 159.18252,28.2376484 C159.923143,28.2376484 160.668064,28.2376484 161.414417,28.9828863 C162.899961,28.9828863 163.644881,29.7238329 163.644881,30.4676404 C164.386937,31.208587 165.131858,31.9552553 165.875346,32.6962019 L165.875346,35.6685709 L165.875346,38.6409399 C165.131858,39.3847473 164.386937,40.1285548 163.644881,40.8695014 C163.644881,41.6161697 162.899961,42.3571163 161.414417,42.3571163 C160.668064,43.0994934 159.923143,43.0994934 159.18252,43.0994934" id="Fill-8" fill="#ED1944"></path>
                                <path d="M194.142648,31.2088731 C193.390565,29.724119 192.661402,28.2379345 191.907887,26.7531804 C190.42091,26.0079426 188.932502,25.2655655 188.190446,24.5231885 C186.702037,23.7779506 185.216494,23.7779506 182.983164,23.7779506 L175.545418,23.7779506 L174.80193,23.7779506 L174.80193,24.5231885 L174.80193,46.8159559 L174.80193,47.5597633 L175.545418,47.5597633 L182.983164,47.5597633 C185.216494,47.5597633 186.702037,47.5597633 188.190446,46.8159559 C189.678855,46.0721484 190.42091,45.3297714 191.907887,44.5873943 C192.661402,43.0997794 193.390565,41.6150253 194.142648,40.1274104 C194.894732,38.6397956 194.894732,37.1550415 194.894732,35.668857 C194.894732,34.1841029 194.894732,32.696488 194.142648,31.2088731 L194.142648,31.2088731 Z M179.265724,28.2379345 L182.983164,28.2379345 C183.728085,28.2379345 184.47014,28.2379345 185.958549,28.9817419 C186.702037,28.9817419 187.446958,29.724119 188.190446,30.466496 C188.190446,31.2088731 188.932502,31.9541109 189.678855,32.696488 L189.678855,35.668857 L189.678855,38.6397956 C188.932502,39.3850334 188.190446,40.1274104 188.190446,40.8697875 C187.446958,41.6150253 186.702037,42.3574024 185.958549,42.3574024 C184.47014,43.0997794 183.728085,43.0997794 182.983164,43.0997794 L179.265724,43.0997794 L179.265724,28.2379345 Z" id="Fill-10" fill="#ED1944"></path>
                                <path d="M212.744749,30.4672112 C213.473912,29.7234038 214.225995,28.9824571 214.979511,28.9824571 C215.707241,28.2372193 216.460757,28.2372193 217.18992,28.2372193 C218.694087,28.2372193 219.423249,28.2372193 220.928848,28.9824571 C221.658011,29.7234038 222.410094,30.4672112 223.162178,31.2095883 L223.89134,31.9548261 L224.644856,31.2095883 L226.878186,29.7234038 C227.607348,28.9824571 227.607348,28.9824571 226.878186,28.2372193 C226.126102,26.7524652 224.644856,26.0086578 223.162178,24.5239037 C221.658011,23.7772354 219.423249,23.7772354 217.18992,23.7772354 C215.707241,23.7772354 214.225995,23.7772354 212.744749,24.5239037 C211.237717,25.2648503 209.757904,26.0086578 209.028741,26.7524652 C207.523142,28.2372193 206.795412,29.7234038 206.041896,31.2095883 C206.041896,32.6972032 205.289813,34.1848181 205.289813,35.6695722 C205.289813,37.1557567 206.041896,38.6405108 206.041896,40.1281256 C206.795412,41.6157405 207.523142,43.0990642 209.028741,44.5866791 C209.757904,45.3304866 211.237717,46.0714332 212.744749,46.8166711 C214.225995,47.5590481 215.707241,47.5590481 217.18992,47.5590481 C219.423249,47.5590481 221.658011,47.5590481 223.162178,46.8166711 C224.644856,45.3304866 226.126102,44.5866791 226.878186,43.0990642 C227.607348,42.3581176 227.607348,42.3581176 226.878186,41.6157405 L224.644856,39.3843182 L223.89134,39.3843182 L223.162178,40.1281256 C222.410094,40.8690723 221.658011,41.6157405 220.928848,42.3581176 C219.423249,43.0990642 218.694087,43.0990642 217.18992,43.0990642 C216.460757,43.0990642 215.707241,43.0990642 214.979511,42.3581176 C214.225995,42.3581176 213.473912,41.6157405 212.744749,40.8690723 C211.992666,40.1281256 211.237717,39.3843182 211.237717,38.6405108 C210.509987,37.8981337 210.509987,36.4133796 210.509987,35.6695722 C210.509987,34.9257647 210.509987,33.4381498 211.237717,32.6972032 C211.237717,31.9548261 211.992666,31.2095883 212.744749,30.4672112" id="Fill-12" fill="#003262"></path>
                                <path d="M241.741071,23.7775215 L241.011909,23.7775215 L239.50631,23.7775215 L230.59448,46.8155267 L230.59448,47.5593342 L231.32221,47.5593342 L235.062571,47.5593342 L235.791734,47.5593342 L235.791734,46.0717193 L245.457079,46.0717193 L245.457079,47.5593342 L246.209163,47.5593342 L249.925171,47.5593342 L250.677254,47.5593342 L250.677254,46.8155267 L241.741071,23.7775215 Z M241.011909,34.1836738 L243.246671,41.6160266 L238.025063,41.6160266 L241.011909,34.1836738 Z" id="Fill-14" fill="#003262"></path>
                                <path d="M271.49005,31.9548261 L271.49005,31.2095883 L271.49005,30.4672112 L271.49005,29.7234038 C270.760887,28.9824571 270.760887,27.4948423 270.008804,26.7524652 C269.279641,26.0086578 268.527558,25.2648503 267.774042,24.5239037 C266.292796,23.7772354 264.059467,23.7772354 262.576788,23.7772354 L255.146205,23.7772354 L254.392689,23.7772354 L253.640606,24.5239037 L253.640606,46.8166711 L254.392689,47.5590481 L255.146205,47.5590481 L258.108697,47.5590481 L258.862213,47.5590481 L258.862213,46.8166711 L258.862213,40.8690723 L262.576788,40.8690723 L264.81155,40.8690723 C266.292796,40.1281256 267.044879,40.1281256 267.774042,39.3843182 C268.527558,39.3843182 269.279641,38.6405108 270.008804,37.8981337 C270.760887,36.4133796 270.760887,35.6695722 271.49005,34.9257647 L271.49005,34.1848181 L271.49005,33.4381498 L271.49005,32.6972032 L271.49005,31.9548261 Z M266.292796,31.9548261 L266.292796,34.1848181 L265.540713,34.9257647 C264.81155,35.6695722 264.81155,35.6695722 264.059467,36.4133796 L262.576788,36.4133796 L258.862213,36.4133796 L258.862213,28.2372193 L262.576788,28.2372193 L264.059467,28.2372193 C264.81155,28.2372193 264.81155,28.9824571 265.540713,28.9824571 C265.540713,29.7234038 266.292796,30.4672112 266.292796,30.4672112 L266.292796,31.9548261 Z" id="Fill-16" fill="#003262"></path>
                                <polygon id="Fill-18" fill="#003262" points="278.94513 23.7775215 275.958285 23.7775215 275.229122 23.7775215 275.229122 24.5227593 275.229122 46.8155267 275.229122 47.5593342 275.958285 47.5593342 278.94513 47.5593342 279.674292 47.5593342 279.674292 46.8155267 279.674292 24.5227593 279.674292 23.7775215"></polygon>
                                <polygon id="Fill-20" fill="#003262" points="298.275963 23.7775215 284.142527 23.7775215 283.413364 23.7775215 283.413364 24.5227593 283.413364 27.4951283 283.413364 28.2375054 284.142527 28.2375054 288.610618 28.2375054 288.610618 46.8155267 288.610618 47.5593342 289.362702 47.5593342 293.07871 47.5593342 293.807872 46.8155267 293.807872 28.2375054 298.275963 28.2375054 299.028047 28.2375054 299.028047 27.4951283 299.028047 24.5227593 299.028047 23.7775215"></polygon>
                                <path d="M313.162343,23.7775215 L312.41026,23.7775215 L311.656744,23.7775215 L302.744914,46.8155267 L302.744914,47.5593342 L303.496998,47.5593342 L306.45949,47.5593342 L307.213006,47.5593342 L307.940736,46.0717193 L316.878351,46.0717193 L317.607513,47.5593342 L318.359597,47.5593342 L322.075605,47.5593342 L322.827688,47.5593342 L322.827688,46.8155267 L313.162343,23.7775215 Z M315.397105,41.6160266 L309.446335,41.6160266 L312.41026,34.1836738 L315.397105,41.6160266 Z" id="Fill-22" fill="#003262"></path>
                                <polygon id="Fill-24" fill="#003262" points="339.195743 43.0992073 331.011644 43.0992073 331.011644 24.5240467 331.011644 23.7773785 330.259561 23.7773785 326.543553 23.7773785 325.791469 23.7773785 325.791469 24.5240467 325.791469 46.8168141 325.791469 47.5591912 326.543553 47.5591912 339.195743 47.5591912 339.924906 47.5591912 339.924906 46.8168141 339.924906 43.8430147 339.924906 43.0992073"></polygon>
                                <path d="M360.00811,40.8697875 L360.00811,40.8697875 C360.00811,40.1274104 360.00811,38.6397956 359.278947,37.8988489 C359.278947,37.1550415 358.526863,36.4140948 357.773348,35.668857 L357.045617,34.9264799 C356.292102,34.1841029 356.292102,34.1841029 355.562939,33.438865 L352.577526,33.438865 L351.094848,33.438865 C350.342764,33.438865 350.342764,33.438865 349.613602,32.696488 L348.861518,32.696488 L348.861518,31.9555413 C348.861518,31.2088731 348.108002,31.2088731 348.108002,30.4679264 L348.861518,30.4679264 L348.861518,29.724119 C348.861518,28.9817419 348.861518,28.9817419 349.613602,28.9817419 C349.613602,28.9817419 349.613602,28.2379345 350.342764,28.2379345 L351.094848,28.2379345 L352.577526,28.2379345 C352.577526,28.2379345 353.32961,28.2379345 354.058772,28.9817419 C354.058772,28.9817419 354.810856,29.724119 354.810856,30.4679264 L355.562939,30.4679264 C355.562939,31.2088731 355.562939,31.2088731 356.292102,30.4679264 L358.526863,28.2379345 C359.278947,28.2379345 359.278947,27.4941271 359.278947,27.4941271 L358.526863,26.7531804 C357.773348,26.0079426 357.045617,25.2655655 356.292102,24.5231885 C354.810856,23.7779506 354.058772,23.7779506 352.577526,23.7779506 L350.342764,23.7779506 C349.613602,23.7779506 348.108002,23.7779506 347.380272,24.5231885 C345.874673,25.2655655 345.14551,26.0079426 344.393427,26.7531804 C343.664264,27.4941271 343.664264,28.9817419 343.664264,30.4679264 L343.664264,33.438865 C344.393427,34.1841029 344.393427,34.9264799 345.14551,35.668857 C345.14551,35.668857 345.874673,35.668857 345.874673,36.4140948 C346.626756,37.1550415 347.380272,37.1550415 348.108002,37.8988489 L350.342764,37.8988489 L352.577526,37.8988489 L353.32961,38.6397956 L354.058772,38.6397956 C354.058772,39.3850334 354.058772,39.3850334 354.810856,39.3850334 L354.810856,40.8697875 C354.810856,41.6150253 354.058772,42.3574024 354.058772,42.3574024 C353.32961,43.0997794 352.577526,43.0997794 351.82401,43.0997794 L351.094848,43.0997794 L350.342764,43.0997794 C349.613602,43.0997794 349.613602,42.3574024 349.613602,42.3574024 L348.861518,41.6150253 L348.861518,40.8697875 C348.108002,40.8697875 348.108002,40.1274104 348.108002,40.1274104 L347.380272,40.1274104 L344.393427,42.3574024 C343.664264,43.0997794 343.664264,43.0997794 344.393427,43.8421565 L344.393427,44.5873943 C345.14551,45.3297714 345.874673,46.0721484 347.380272,46.8159559 C348.108002,47.5597633 349.613602,47.5597633 350.342764,47.5597633 L352.577526,47.5597633 C354.058772,47.5597633 354.810856,47.5597633 356.292102,46.8159559 C357.045617,46.0721484 357.773348,45.3297714 358.526863,44.5873943 C359.278947,43.8421565 360.00811,42.3574024 360.00811,40.8697875" id="Fill-26" fill="#003262"></path>
                                <path d="M29.7531329,11.1456685 L29.0096448,11.8909063 L29.0096448,25.2651364 L21.5690337,28.2375054 C20.8298433,28.9827432 20.8298433,28.9827432 20.8298433,29.7236899 C21.5690337,30.4674973 22.3153869,30.4674973 22.3153869,30.4674973 L29.0096448,27.4951283 L29.0096448,28.9827432 C29.0096448,29.7236899 29.7531329,30.4674973 30.4980536,30.4674973 C31.2429742,30.4674973 31.2429742,29.7236899 31.2429742,28.9827432 L31.2429742,12.631853 L35.7053353,10.4018611 L35.7053353,28.9827432 C35.7053353,29.7236899 35.7053353,30.4674973 36.4488234,30.4674973 C37.1923115,30.4674973 37.9357996,29.7236899 37.9357996,28.9827432 L37.9357996,9.66091441 L48.347498,13.3756604 L48.347498,40.8693584 C48.347498,41.6160266 48.347498,41.6160266 49.0938512,41.6160266 C49.8373393,41.6160266 50.5808274,41.6160266 50.5808274,40.8693584 L50.5808274,28.9827432 L59.5055496,32.6960589 C60.2504702,32.6960589 60.9968234,32.6960589 60.9968234,31.9551122 C61.7360139,31.208444 60.9968234,30.4674973 60.2504702,30.4674973 L50.5808274,26.7527513 L50.5808274,12.631853 L49.8373393,11.8909063 L46.1170337,10.4018611 L46.1170337,2.97093859 C46.1170337,2.97093859 46.1170337,2.22999194 45.3735456,2.22999194 L39.4213433,0 L38.6807202,0 L33.474871,3.71760683 C32.7285179,3.71760683 32.7285179,4.45855348 32.7285179,4.45855348 L32.7285179,9.66091441 L29.7531329,11.1456685 Z M43.8851369,9.66091441 L40.1676964,8.17329952 L40.1676964,2.97093859 L43.8851369,3.71760683 L43.8851369,9.66091441 Z M34.9604147,5.20236093 L37.9357996,2.97093859 L37.9357996,7.43092247 L37.1923115,7.43092247 L36.4488234,7.43092247 L35.7053353,7.43092247 L34.9604147,8.17329952 L34.9604147,5.20236093 Z" id="Fill-28" fill="#808285"></path>
                                <path d="M40.8175766,14.8627032 L40.8175766,14.1188957 C40.1664071,14.1188957 40.1664071,14.1188957 40.1664071,14.8627032 L40.1664071,16.3488877 C40.1664071,17.0926951 40.1664071,17.0926951 40.8175766,17.0926951 L40.8175766,16.3488877 L40.8175766,14.8627032 Z" id="Fill-30" fill="#808285"></path>
                                <path d="M40.8175766,18.5770201 C40.1664071,18.5770201 40.1664071,18.5770201 40.1664071,19.3222579 L40.1664071,21.5508195 C40.1664071,21.5508195 40.1664071,22.2946269 40.8175766,22.2946269 L40.8175766,21.5508195 L40.8175766,19.3222579 L40.8175766,18.5770201 Z" id="Fill-32" fill="#808285"></path>
                                <path d="M44.6312036,19.3215427 C45.2773832,19.3215427 45.2773832,18.5763049 45.2773832,18.5763049 L45.2773832,16.3491737 C45.2773832,15.6039359 45.2773832,15.6039359 44.6312036,15.6039359 L44.6312036,16.3491737 L44.6312036,18.5763049 L44.6312036,19.3215427 Z" id="Fill-34" fill="#808285"></path>
                                <path d="M44.6312036,23.0358597 L44.6312036,23.7782367 C45.2773832,23.7782367 45.2773832,23.0358597 45.2773832,23.0358597 L45.2773832,20.8058677 C45.2773832,20.8058677 45.2773832,20.0634907 44.6312036,20.0634907 L44.6312036,20.8058677 L44.6312036,23.0358597 Z" id="Fill-36" fill="#808285"></path>
                                <path d="M44.6312036,27.4946992 L44.6312036,28.2385067 C45.2773832,28.2385067 45.2773832,28.2385067 45.2773832,27.4946992 L45.2773832,25.2647073 C45.2773832,25.2647073 45.2773832,24.5237606 44.6312036,24.5237606 L44.6312036,25.2647073 L44.6312036,27.4946992 Z" id="Fill-38" fill="#808285"></path>
                                <path d="M4.46408016,40.8697875 C5.20756825,41.6150253 5.20756825,41.6150253 5.94962381,41.6150253 L5.94962381,40.8697875 C5.94962381,40.8697875 5.94962381,40.1274104 5.20756825,39.3850334 L5.20756825,37.1550415 L5.20756825,34.9264799 C5.94962381,34.9264799 6.69597698,34.1841029 7.43803254,33.438865 C8.18152063,33.438865 8.18152063,33.438865 8.18152063,32.696488 L8.18152063,31.9555413 L8.18152063,30.4679264 C8.18152063,29.724119 8.92644127,29.724119 8.92644127,28.9817419 C9.66992937,28.2379345 10.4134175,28.2379345 11.1597706,28.2379345 L11.9018262,28.2379345 C12.6453143,28.2379345 12.6453143,28.9817419 13.3902349,28.9817419 L13.3902349,29.724119 L14.8772111,29.724119 L14.8772111,28.9817419 C14.8772111,28.9817419 14.133723,28.2379345 13.3902349,27.4941271 L12.6453143,27.4941271 C11.9018262,26.7531804 11.9018262,26.7531804 11.1597706,26.7531804 C10.4134175,26.7531804 8.92644127,27.4941271 8.18152063,28.2379345 C7.43803254,28.2379345 7.43803254,28.9817419 6.69597698,29.724119 L6.69597698,31.9555413 L6.69597698,32.696488 C5.94962381,33.438865 5.20756825,34.1841029 4.46408016,34.9264799 C3.71772698,35.668857 3.71772698,36.4140948 3.71772698,37.1550415 C3.71772698,38.6397956 3.71772698,39.3850334 4.46408016,40.1274104 L4.46408016,40.8697875 Z" id="Fill-40" fill="#808285"></path>
                                <path d="M16.3650468,26.0083717 C16.3650468,26.0083717 17.1099675,26.0083717 17.1099675,26.7536095 L15.6215587,34.184532 C15.6215587,34.9254786 15.6215587,35.6692861 16.3650468,35.6692861 C17.1099675,35.6692861 17.852023,35.6692861 17.852023,34.9254786 L19.3375667,26.7536095 L22.3143841,26.7536095 C23.0607373,26.0083717 24.5477135,25.2645642 25.289769,24.5236176 C26.0332571,23.0360027 26.7796103,22.2936256 26.7796103,20.8060108 L25.289769,20.8060108 L26.7796103,20.8060108 L26.7796103,17.0926951 C26.7796103,15.6050802 26.7796103,13.3750883 26.0332571,11.8903342 C26.0332571,11.1450963 25.289769,10.4027193 24.5477135,10.4027193 C24.5477135,9.66034225 23.8013603,8.9179652 23.0607373,8.9179652 L21.5694635,8.9179652 C20.8288405,8.9179652 20.0839198,8.9179652 19.3375667,9.66034225 C17.852023,10.4027193 17.1099675,11.8903342 15.6215587,13.3750883 C14.8766381,14.8627032 14.13315,16.3488877 14.13315,17.8336418 C13.3910944,18.5774492 13.3910944,19.3212567 13.3910944,19.3212567 C13.3910944,20.8060108 14.13315,22.2936256 14.8766381,23.7769493 C15.6215587,24.5236176 15.6215587,25.2645642 16.3650468,26.0083717 L16.3650468,26.0083717 Z M15.6215587,18.5774492 C16.3650468,16.3488877 17.1099675,14.8627032 18.5983762,13.3750883 C19.3375667,12.6312808 20.0839198,11.8903342 20.0839198,11.8903342 C20.8288405,11.1450963 21.5694635,11.1450963 21.5694635,11.1450963 L22.3143841,11.1450963 C22.3143841,11.1450963 23.0607373,11.1450963 23.0607373,11.8903342 C23.8013603,11.8903342 23.8013603,12.6312808 24.5477135,14.1188957 C24.5477135,14.8627032 25.289769,15.6050802 25.289769,17.0926951 C25.289769,18.5774492 24.5477135,19.3212567 24.5477135,20.8060108 C24.5477135,20.8060108 24.5477135,21.5512486 23.8013603,22.2936256 C23.0607373,23.0360027 23.0607373,23.7769493 22.3143841,23.7769493 C21.5694635,24.5236176 20.0839198,24.5236176 19.3375667,24.5236176 C18.5983762,24.5236176 17.852023,24.5236176 17.852023,23.7769493 C17.1099675,23.7769493 16.3650468,23.0360027 16.3650468,22.2936256 C16.3650468,21.5512486 15.6215587,20.0636337 15.6215587,19.3212567 L15.6215587,18.5774492 Z" id="Fill-42" fill="#808285"></path>
                                <path d="M43.1440841,47.5593342 C42.397731,48.3017112 42.397731,49.0455187 42.397731,49.7893261 L42.397731,50.5302728 L42.397731,52.0178877 C42.397731,52.7602647 43.1440841,52.7602647 43.8861397,53.5026418 C44.6310603,54.2478796 45.3745484,54.2478796 46.116604,54.2478796 L47.6050127,54.2478796 C47.6050127,54.9902567 48.3485008,55.7326337 49.0934214,56.4764412 C49.8369095,57.2202486 50.5803976,57.2202486 52.0688063,57.2202486 L55.7891119,57.2202486 C56.5326,57.2202486 57.2760881,57.2202486 58.0195762,56.4764412 C58.7644968,56.4764412 58.7644968,55.7326337 59.5051198,55.7326337 C60.2500405,54.2478796 60.2500405,53.5026418 60.9963937,52.0178877 C61.7370167,50.5302728 61.7370167,48.3017112 61.7370167,47.5593342 L61.7370167,44.5869652 L61.7370167,43.8417274 L60.9963937,43.8417274 L46.8629571,43.8417274 C46.116604,43.8417274 46.116604,44.5869652 46.116604,44.5869652 L46.116604,46.0717193 L46.116604,46.8155267 L45.3745484,46.8155267 L43.8861397,46.8155267 L43.1440841,47.5593342 Z M58.7644968,50.5302728 C58.7644968,52.0178877 58.0195762,53.5026418 58.0195762,54.2478796 C57.2760881,54.2478796 57.2760881,54.9902567 56.5326,54.9902567 L55.7891119,54.9902567 L52.0688063,54.9902567 L50.5803976,54.9902567 L49.8369095,54.2478796 C49.8369095,54.2478796 49.0934214,53.5026418 49.0934214,52.7602647 C48.3485008,52.0178877 48.3485008,50.5302728 48.3485008,49.0455187 C48.3485008,48.3017112 47.6050127,46.8155267 47.6050127,46.0717193 L59.5051198,46.0717193 C59.5051198,46.8155267 59.5051198,49.0455187 58.7644968,50.5302728 L58.7644968,50.5302728 Z M44.6310603,49.7893261 L44.6310603,49.0455187 L45.3745484,49.0455187 L46.116604,49.0455187 C46.116604,49.7893261 46.116604,51.2740802 46.8629571,52.0178877 L45.3745484,52.0178877 L44.6310603,51.2740802 L44.6310603,50.5302728 L44.6310603,49.7893261 Z" id="Fill-44" fill="#808285"></path>
                                <path d="M1.4856869,55.7324907 C1.4856869,55.7324907 2.23204008,55.7324907 2.97696071,54.9901136 C2.97696071,54.9901136 3.71901627,53.5024987 5.94948056,51.2739372 C7.43788929,52.0177446 8.92629802,53.5024987 10.4132742,54.2477366 C12.645171,54.9901136 14.8770679,55.7324907 17.8524528,55.7324907 C20.8292702,55.7324907 22.3148139,54.9901136 24.5481433,54.9901136 C25.2901988,54.2477366 26.0336869,54.2477366 26.7786075,53.5024987 C28.2641512,52.7601217 29.0105044,52.0177446 29.0105044,51.2739372 C29.7525599,50.5301297 29.7525599,49.7891831 29.7525599,49.7891831 C29.7525599,49.7891831 29.7525599,49.0453756 29.0105044,48.3015682 C29.0105044,48.3015682 29.0105044,47.5591912 28.2641512,46.8168141 C27.5220956,46.0715763 26.7786075,45.3306296 24.5481433,44.5868222 C23.0611671,43.8415843 20.8292702,43.8415843 17.1089647,43.8415843 C14.8770679,43.8415843 12.645171,44.5868222 10.4132742,45.3306296 C8.92629802,46.0715763 7.43788929,46.8168141 5.94948056,48.3015682 C5.94948056,47.5591912 5.94948056,47.5591912 5.207425,47.5591912 C4.4639369,46.0715763 4.4639369,46.0715763 3.71901627,45.3306296 L3.71901627,44.5868222 C3.71901627,43.8415843 2.97696071,43.8415843 2.23204008,43.8415843 C1.4856869,43.8415843 1.4856869,44.5868222 1.4856869,45.3306296 C1.4856869,45.3306296 2.23204008,47.5591912 4.4639369,49.7891831 L3.71901627,50.5301297 C1.4856869,52.7601217 0.745063889,53.5024987 0.745063889,54.2477366 C0.745063889,54.2477366 0.745063889,54.9901136 1.4856869,55.7324907 M26.0336869,47.5591912 C26.7786075,48.3015682 26.7786075,49.0453756 26.7786075,49.0453756 L27.5220956,49.7891831 L26.7786075,50.5301297 C26.7786075,51.2739372 26.0336869,52.0177446 24.5481433,52.0177446 C23.8017901,52.7601217 22.3148139,52.7601217 20.8292702,53.5024987 L20.8292702,46.0715763 C22.3148139,46.0715763 23.0611671,46.8168141 23.8017901,46.8168141 C24.5481433,46.8168141 25.2901988,47.5591912 26.0336869,47.5591912 M11.1596274,47.5591912 C13.3915242,46.8168141 15.6219885,46.0715763 17.1089647,46.0715763 L18.5973734,46.0715763 L18.5973734,53.5024987 L17.8524528,53.5024987 C14.8770679,53.5024987 13.3915242,52.7601217 11.1596274,52.0177446 C9.66978611,51.2739372 8.92629802,50.5301297 7.43788929,49.7891831 C8.92629802,49.0453756 10.4132742,48.3015682 11.1596274,47.5591912" id="Fill-46" fill="#808285"></path>
                                <path d="M75.1272516,46.8162419 C75.1272516,46.8162419 75.8736048,47.5600494 76.6156603,47.5600494 L80.3345333,47.5600494 L80.3345333,49.7886109 C79.5881802,50.530988 79.5881802,50.530988 79.5881802,51.273365 C79.5881802,51.273365 78.8489897,51.273365 78.8489897,52.0186029 C77.360581,53.503357 75.1272516,54.2471644 72.8953548,54.2471644 C70.6648905,54.2471644 68.4315611,53.503357 66.9460175,52.0186029 C66.9460175,51.273365 66.2010968,51.273365 66.2010968,51.273365 C66.2010968,50.530988 65.4576087,49.7886109 65.4576087,49.0462339 L65.4576087,47.5600494 L64.7141206,46.8162419 C64.7141206,46.0710041 63.9692,46.0710041 63.2271444,46.0710041 C63.2271444,46.0710041 62.4822238,46.8162419 63.2271444,47.5600494 L63.2271444,48.300996 C63.2271444,49.0462339 63.9692,50.530988 63.9692,51.273365 L64.7141206,52.0186029 C64.7141206,52.7595495 65.4576087,52.7595495 65.4576087,53.503357 C66.2010968,54.2471644 67.6895056,54.9909719 68.4315611,54.9909719 L68.4315611,55.7319185 C68.4315611,56.4771564 68.4315611,57.2195334 69.1779143,57.2195334 L75.8736048,57.2195334 C76.6156603,57.2195334 76.6156603,56.4771564 76.6156603,55.7319185 C78.1026365,54.9909719 79.5881802,54.2471644 80.3345333,53.503357 C81.079454,52.7595495 81.079454,52.7595495 81.079454,52.0186029 C81.820077,51.273365 82.5649976,50.530988 82.5649976,49.7886109 C82.5649976,49.0462339 82.5649976,48.300996 83.3113508,46.8162419 C83.3113508,46.0710041 82.5649976,46.0710041 82.5649976,46.0710041 C82.5649976,45.3300575 82.5649976,45.3300575 81.820077,45.3300575 L76.6156603,45.3300575 C75.8736048,45.3300575 75.1272516,46.0710041 75.1272516,46.8162419" id="Fill-48" fill="#808285"></path>
                                <path d="M67.6889325,47.5593342 L75.8730317,40.1284117 C76.6150873,39.3846043 76.6150873,38.6407968 76.6150873,38.6407968 C75.8730317,37.8984198 75.1266786,37.8984198 75.1266786,37.8984198 L66.2005238,46.0717193 C65.4570357,46.0717193 65.4570357,46.8155267 66.2005238,47.5593342 L67.6889325,47.5593342 Z" id="Fill-50" fill="#808285"></path>
                                <path d="M70.6644607,47.5593342 L72.1528694,47.5593342 L81.0804567,40.1284117 L81.0804567,38.6407968 C80.3341036,37.8984198 79.5877504,37.8984198 79.5877504,37.8984198 L70.6644607,46.0717193 L70.6644607,47.5593342 Z" id="Fill-52" fill="#808285"></path>
                                <path d="M53.5579313,35.669143 C54.3014194,35.669143 54.3014194,35.669143 54.3014194,34.9253356 L53.5579313,34.9253356 C52.8115782,34.9253356 52.0695226,34.9253356 52.0695226,35.669143 L52.0695226,37.1553275 L52.0695226,38.6400816 L52.8115782,39.3853195 L53.5579313,40.1276965 L53.5579313,40.8700736 C53.5579313,40.8700736 52.8115782,40.8700736 52.8115782,41.6153114 C52.0695226,41.6153114 52.0695226,41.6153114 52.0695226,42.3576885 L52.8115782,42.3576885 C53.5579313,42.3576885 54.3014194,42.3576885 54.3014194,41.6153114 C54.3014194,41.6153114 55.043475,40.8700736 55.043475,40.1276965 C55.043475,39.3853195 54.3014194,39.3853195 53.5579313,38.6400816 L53.5579313,37.899135 L52.8115782,37.1553275 L52.8115782,36.4143809 C53.5579313,36.4143809 53.5579313,35.669143 53.5579313,35.669143" id="Fill-54" fill="#808285"></path>
                                <path d="M57.2763746,35.669143 L57.2763746,34.9253356 L56.531454,34.9253356 C55.7893984,34.9253356 55.7893984,34.9253356 55.0430452,35.669143 L55.0430452,37.1553275 L55.0430452,38.6400816 C55.7893984,38.6400816 55.7893984,39.3853195 56.531454,39.3853195 L56.531454,40.1276965 L56.531454,40.8700736 L55.7893984,41.6153114 C55.7893984,41.6153114 55.0430452,41.6153114 55.0430452,42.3576885 L55.7893984,42.3576885 C56.531454,42.3576885 57.2763746,42.3576885 57.2763746,41.6153114 C58.0198627,41.6153114 58.0198627,40.8700736 58.0198627,40.1276965 C58.0198627,39.3853195 57.2763746,39.3853195 57.2763746,38.6400816 C56.531454,38.6400816 56.531454,37.899135 56.531454,37.899135 L56.531454,37.1553275 L56.531454,36.4143809 C56.531454,36.4143809 56.531454,35.669143 57.2763746,35.669143" id="Fill-56" fill="#808285"></path>
                                <path d="M60.2506135,35.669143 C60.2506135,35.669143 60.9969667,35.669143 60.9969667,34.9253356 L59.5042603,34.9253356 C59.5042603,34.9253356 58.7650698,34.9253356 58.7650698,35.669143 C58.0187167,35.669143 58.0187167,36.4143809 58.0187167,37.1553275 C58.0187167,37.1553275 58.0187167,37.899135 58.7650698,38.6400816 C58.7650698,38.6400816 58.7650698,39.3853195 59.5042603,39.3853195 C59.5042603,40.1276965 60.2506135,40.1276965 60.2506135,40.1276965 L59.5042603,40.8700736 L58.7650698,41.6153114 L58.7650698,42.3576885 L59.5042603,42.3576885 C60.2506135,42.3576885 60.2506135,42.3576885 60.9969667,41.6153114 L60.9969667,40.1276965 C60.9969667,39.3853195 60.9969667,39.3853195 60.2506135,38.6400816 L59.5042603,37.899135 L59.5042603,37.1553275 L59.5042603,36.4143809 L60.2506135,35.669143 Z" id="Fill-58" fill="#808285"></path>
                                <path d="M61.7363004,9.66077137 C61.7363004,10.4031484 62.4826536,12.63171 63.2275742,14.1193248 C63.9696298,15.6040789 63.9696298,16.3493168 64.7145504,17.0916938 L64.7145504,17.8340709 L64.7145504,18.5764479 L65.4580385,19.3216858 C65.4580385,20.8064399 64.7145504,21.5516777 63.9696298,23.0364318 C63.9696298,23.0364318 63.9696298,23.7773785 63.2275742,23.7773785 C63.2275742,24.5240467 62.4826536,24.5240467 61.7363004,24.5240467 L60.9956774,24.5240467 L59.5044036,24.5240467 C58.7652131,23.7773785 58.0188599,23.7773785 58.0188599,23.0364318 C57.2768044,22.2940548 56.5318837,21.5516777 56.5318837,20.8064399 C56.5318837,20.0626324 56.5318837,19.3216858 55.7898282,18.5764479 L55.7898282,14.1193248 C55.7898282,13.3755174 55.043475,12.63171 55.043475,11.8907633 L55.043475,11.1455255 C55.043475,10.4031484 54.3014194,10.4031484 54.3014194,10.4031484 C53.5579313,10.4031484 52.8130107,11.1455255 52.8130107,11.8907633 C52.8130107,11.8907633 53.5579313,13.3755174 53.5579313,15.6040789 C53.5579313,17.0916938 53.5579313,18.5764479 54.3014194,19.3216858 L54.3014194,20.8064399 L54.3014194,21.5516777 C54.3014194,22.2940548 55.043475,23.0364318 55.043475,23.0364318 C55.7898282,24.5240467 56.5318837,25.2649934 58.0188599,26.0088008 C58.7652131,26.7526082 60.2507567,26.7526082 60.9956774,26.7526082 L61.7363004,26.7526082 L63.2275742,32.6959158 C63.2275742,33.4382929 63.9696298,34.1849611 64.7145504,33.4382929 C65.4580385,33.4382929 65.4580385,32.6959158 65.4580385,31.9549692 L63.9696298,26.0088008 C63.9696298,26.0088008 64.7145504,26.0088008 64.7145504,25.2649934 C65.4580385,24.5240467 66.200094,23.7773785 66.9464472,23.0364318 L66.9464472,19.3216858 L66.9464472,17.8340709 C66.9464472,17.0916938 66.200094,16.3493168 66.200094,15.6040789 C65.4580385,12.63171 63.2275742,8.91696392 63.2275742,8.91696392 C63.2275742,8.17315648 62.4826536,8.17315648 61.7363004,8.17315648 C61.7363004,8.17315648 60.9956774,8.91696392 61.7363004,9.66077137" id="Fill-60" fill="#808285"></path>
                                <path d="M56.5321702,9.66077137 C55.7886821,9.66077137 55.7886821,10.4031484 55.7886821,10.4031484 L58.0191464,18.5764479 C58.0191464,19.3216858 58.7654996,19.3216858 58.7654996,19.3216858 C59.5046901,19.3216858 60.2510433,18.5764479 59.5046901,17.8340709 L58.0191464,10.4031484 C57.2770909,9.66077137 57.2770909,8.91696392 56.5321702,9.66077137" id="Fill-62" fill="#808285"></path>
                                <path d="M60.2506135,17.8339278 C60.9969667,17.8339278 60.9969667,18.5777353 61.7361571,18.5777353 C62.4825103,18.5777353 62.4825103,17.8339278 62.4825103,17.0915508 L60.2506135,9.66062833 C60.2506135,8.91825128 59.5042603,8.17301344 59.5042603,8.91825128 C58.7650698,8.91825128 58.0187167,9.66062833 58.7650698,9.66062833 L60.2506135,17.8339278 Z" id="Fill-64" fill="#808285"></path>
                                <g id="Group-68" transform="translate(0.000000, 30.465646)">
                                    <mask id="mask-4" fill="white">
                                        <use xlink:href="#path-3"></use>
                                    </mask>
                                    <g id="Clip-67"></g>
                                    <path d="M82.5654274,28.2393568 L40.1665504,28.2393568 L40.1665504,16.3498808 C40.9129036,16.3498808 40.9129036,16.3498808 41.652094,15.6060734 C42.3984472,15.6060734 42.3984472,14.8636964 43.1433679,14.8636964 C43.1433679,14.1213193 43.8854234,13.3760815 43.8854234,13.3760815 C43.8854234,12.6337044 43.1433679,11.8913274 43.1433679,11.1503807 C43.1433679,10.4037125 42.3984472,10.4037125 42.3984472,10.4037125 L40.1665504,9.66276582 L40.1665504,2.97279 L39.4216298,2.23041296 L32.7288044,0.0018514142 L31.9853163,0.0018514142 L8.92715754,8.91895838 C8.92715754,8.91895838 8.18080437,9.66276582 8.92715754,10.4037125 C8.92715754,11.1503807 9.6692131,11.1503807 10.4141337,11.1503807 L31.2432607,2.97279 L31.2432607,8.91895838 C31.2432607,8.91895838 30.4969075,9.66276582 30.4969075,10.4037125 C30.4969075,10.4037125 29.7534194,11.1503807 29.7534194,11.8913274 C29.7534194,13.3760815 30.4969075,14.1213193 30.4969075,14.8636964 L31.2432607,15.6060734 L31.2432607,28.2393568 L1.48511389,28.2393568 C0.745923413,28.2393568 0.745923413,28.9845946 0.745923413,29.7255413 C0.745923413,30.4693487 0.745923413,30.4693487 1.48511389,30.4693487 L82.5654274,30.4693487 C83.3117806,30.4693487 83.3117806,30.4693487 83.3117806,29.7255413 C83.3117806,28.9845946 83.3117806,28.2393568 82.5654274,28.2393568 L82.5654274,28.2393568 Z M40.9129036,13.3760815 L40.9129036,14.1213193 L39.4216298,14.1213193 L38.6810067,14.1213193 L32.7288044,14.1213193 L32.7288044,13.3760815 C32.7288044,13.3760815 31.9853163,12.6337044 31.9853163,11.8913274 C31.9853163,11.8913274 31.9853163,11.1503807 32.7288044,11.1503807 L32.7288044,10.4037125 L40.9129036,12.6337044 C40.9129036,12.6337044 41.652094,12.6337044 41.652094,13.3760815 L40.9129036,13.3760815 Z M37.9360861,9.66276582 L33.473725,8.91895838 L33.473725,2.97279 L37.9360861,3.71802785 L37.9360861,9.66276582 Z M32.7288044,16.3498808 L37.9360861,16.3498808 L37.9360861,18.5798728 C37.192598,18.5798728 37.192598,18.5798728 37.192598,19.3236802 L37.192598,20.0646269 C37.192598,20.8084343 37.192598,20.8084343 37.9360861,21.5522418 L37.9360861,28.2393568 L32.7288044,28.2393568 L32.7288044,16.3498808 Z" id="Fill-66" fill="#808285" mask="url(#mask-4)"></path>
                                </g>
                                <path d="M23.8019333,8.17315648 L24.5482865,8.17315648 C24.5482865,7.43077943 25.2903421,6.68840238 26.0338302,6.68840238 C26.7787508,5.94316454 28.2642944,5.20221789 29.7527032,5.20221789 L30.4976238,5.20221789 C31.2425444,5.20221789 31.2425444,5.20221789 31.2425444,4.45841044 L30.4976238,3.71746379 L29.7527032,3.71746379 C28.2642944,3.71746379 27.5222389,4.45841044 26.7787508,4.45841044 C25.2903421,5.20221789 24.5482865,5.94316454 24.5482865,5.94316454 C23.8019333,6.68840238 23.8019333,7.43077943 23.8019333,7.43077943 C23.0598778,7.43077943 23.8019333,8.17315648 23.8019333,8.17315648" id="Fill-69" fill="#808285"></path>
                                <path d="M70.6644607,24.5234745 C71.4108139,24.5234745 72.1528694,23.7782367 72.1528694,22.2934826 C72.1528694,21.5511056 71.4108139,20.0634907 70.6644607,20.0634907 C69.1774845,20.0634907 68.4311313,21.5511056 68.4311313,22.2934826 C68.4311313,23.7782367 69.1774845,24.5234745 70.6644607,24.5234745 M70.6644607,21.5511056 C70.6644607,21.5511056 71.4108139,21.5511056 71.4108139,22.2934826 C71.4108139,23.0358597 70.6644607,23.0358597 70.6644607,23.0358597 C69.9195401,23.0358597 69.1774845,23.0358597 69.1774845,22.2934826 C69.1774845,21.5511056 69.9195401,21.5511056 70.6644607,21.5511056" id="Fill-71" fill="#808285"></path>
                                <path d="M11.1594841,25.2652794 C12.6450278,25.2652794 13.391381,23.7776645 13.391381,23.0352875 C13.391381,21.5505334 12.6450278,20.806726 11.1594841,20.806726 C10.413131,20.806726 9.66964286,21.5505334 9.66964286,23.0352875 C9.66964286,23.7776645 10.413131,25.2652794 11.1594841,25.2652794 M11.1594841,22.2943408 C11.9029722,22.2943408 12.6450278,22.2943408 12.6450278,23.0352875 C12.6450278,23.0352875 11.9029722,23.7776645 11.1594841,23.7776645 L10.413131,23.0352875 C10.413131,22.2943408 11.1594841,22.2943408 11.1594841,22.2943408" id="Fill-73" fill="#808285"></path>
                                <path d="M47.6052992,4.45883956 L47.6052992,4.45883956 C47.6052992,4.45883956 48.3487873,4.45883956 48.3487873,5.20264701 L49.0937079,5.20264701 L49.0937079,6.6888315 L49.0937079,7.43120855 C49.0937079,8.1735856 49.0937079,8.1735856 49.837196,8.1735856 L50.5806841,8.1735856 C50.5806841,8.1735856 50.5806841,7.43120855 51.3270373,6.6888315 L52.812581,6.6888315 C52.812581,5.94359366 53.5575016,5.94359366 53.5575016,5.94359366 C54.3009897,5.94359366 55.0430452,5.94359366 55.7893984,6.6888315 L57.2763746,6.6888315 C57.2763746,5.94359366 57.2763746,5.94359366 56.531454,5.94359366 C55.7893984,5.20264701 55.0430452,4.45883956 53.5575016,4.45883956 C52.812581,4.45883956 52.812581,5.20264701 52.0690929,5.20264701 C51.3270373,5.20264701 51.3270373,5.94359366 50.5806841,5.94359366 L50.5806841,5.20264701 L49.0937079,3.71646251 L48.3487873,3.71646251 C47.6052992,2.97122467 47.6052992,3.71646251 47.6052992,3.71646251 L47.6052992,4.45883956 Z" id="Fill-75" fill="#808285"></path>
                                <path d="M66.9460175,35.669143 L65.4576087,37.899135 L64.7141206,37.899135 C63.9692,37.899135 63.9692,37.899135 63.2271444,38.6400816 C63.2271444,39.3853195 63.9692,40.1276965 64.7141206,40.1276965 L65.4576087,40.8700736 C65.4576087,41.6153114 65.4576087,41.6153114 66.1996643,41.6153114 C66.9460175,41.6153114 67.6895056,40.8700736 66.9460175,40.8700736 L66.9460175,39.3853195 L69.1779143,37.1553275 C69.9199698,37.1553275 70.6648905,37.1553275 71.4098111,36.4143809 C72.1532992,36.4143809 73.6417079,35.669143 74.3837635,35.669143 C75.1272516,34.9253356 75.1272516,34.9253356 75.8721722,34.9253356 C75.8721722,34.184389 76.6156603,34.184389 76.6156603,33.4377207 C77.360581,33.4377207 77.360581,32.6967741 78.1026365,31.954397 L78.1026365,29.7244051 L78.1026365,28.2382206 C78.1026365,28.2382206 77.360581,27.4944131 77.360581,26.7534665 C76.6156603,26.7534665 76.6156603,26.0082286 75.8721722,26.0082286 C75.1272516,25.2658516 74.3837635,25.2658516 73.6417079,25.2658516 L71.4098111,25.2658516 C71.4098111,25.2658516 70.6648905,26.0082286 69.9199698,26.7534665 C69.1779143,27.4944131 68.4315611,28.2382206 68.4315611,28.982028 C67.6895056,30.4667821 67.6895056,31.954397 67.6895056,33.4377207 C66.9460175,34.9253356 66.9460175,35.669143 66.9460175,35.669143 M70.6648905,29.7244051 C70.6648905,28.982028 71.4098111,28.2382206 71.4098111,28.2382206 C72.1532992,27.4944131 72.1532992,27.4944131 72.8953548,27.4944131 L73.6417079,27.4944131 L74.3837635,27.4944131 C75.1272516,28.2382206 75.1272516,28.2382206 75.8721722,28.2382206 L75.8721722,28.982028 L75.8721722,29.7244051 L75.8721722,31.2091592 L75.1272516,31.954397 C75.1272516,32.6967741 74.3837635,32.6967741 74.3837635,32.6967741 C73.6417079,33.4377207 72.8953548,34.184389 71.4098111,34.184389 L70.6648905,34.9253356 L69.1779143,34.9253356 C69.1779143,34.184389 69.9199698,33.4377207 69.9199698,32.6967741 C69.9199698,31.2091592 69.9199698,30.4667821 70.6648905,29.7244051" id="Fill-77" fill="#808285"></path>
                            </g>
                        </g>
                    </g>
                </g>
            </g>
        </g>
    </g>
</svg>