<?xml version="1.0" encoding="UTF-8" standalone="no"?>
<svg width="18px" height="17px" viewBox="0 0 18 17" version="1.1" xmlns="http://www.w3.org/2000/svg" xmlns:xlink="http://www.w3.org/1999/xlink">
    <!-- Generator: Sketch 39.1 (31720) - http://www.bohemiancoding.com/sketch -->
    <title>Group 15</title>
    <desc>Created with Sketch.</desc>
    <defs></defs>
    <g id="02-Stock-News" stroke="none" stroke-width="1" fill="none" fill-rule="evenodd">
        <g id="Group-15" fill="#808184">
            <g id="Group-7">
                <g id="Group-9">
                    <path d="M17.1428571,11.56085 L15.7697143,11.56085 C15.3617143,11.56085 15.0874286,11.83285 15.0874286,12.2417 L15.0874286,13.9417 C15.0874286,14.144 14.9494286,14.28 14.742,14.28 L3.08742857,14.28 C2.87914286,14.28 2.742,14.144 2.742,13.9417 L2.742,12.2417 C2.742,11.83285 2.46771429,11.56085 2.05542857,11.56085 L0.686571429,11.56085 C0.274285714,11.56085 0,11.83285 0,12.2417 L0,16.3183 C0,16.72715 0.274285714,16.99915 0.686571429,16.99915 L17.1428571,16.99915 C17.5542857,16.99915 17.8294286,16.72715 17.8294286,16.3183 L17.8294286,12.2417 C17.8294286,11.83285 17.5542857,11.56085 17.1428571,11.56085 L17.1428571,11.56085 Z" id="Fill-1"></path>
                    <path d="M8.43428571,11.35515 C8.57142857,11.49115 8.77542857,11.56085 8.91257143,11.56085 C9.05057143,11.56085 9.258,11.49115 9.39514286,11.35515 L13.5102857,7.2777 C13.6474286,7.1417 13.7142857,7.00485 13.7142857,6.79915 C13.7142857,6.59685 13.6474286,6.46085 13.5102857,6.32485 L12.5494286,5.372 C12.4114286,5.23515 12.2742857,5.16885 12.0668571,5.16885 C11.8628571,5.16885 11.7257143,5.23515 11.5885714,5.372 L10.902,6.052 C10.6971429,6.25515 10.2857143,6.1183 10.2857143,5.78 L10.2857143,1.36085 C10.2857143,0.952 10.0114286,0.68 9.59914286,0.68 L8.23028571,0.68 C7.818,0.68 7.54371429,0.952 7.54371429,1.36085 L7.54371429,5.8463 C7.54371429,6.1183 7.19828571,6.32485 6.924,6.1183 L6.24085714,5.4417 C6.10371429,5.30485 5.96657143,5.23515 5.75914286,5.23515 C5.55428571,5.23515 5.41714286,5.30485 5.28,5.4417 L4.31914286,6.39115 C4.182,6.52715 4.11514286,6.66315 4.11514286,6.86885 C4.11514286,7.072 4.182,7.208 4.31914286,7.344 L8.43428571,11.35515 Z" id="Fill-4"></path>
                </g>
            </g>
        </g>
    </g>
</svg>